<svg xmlns="http://www.w3.org/2000/svg" fill-rule="evenodd" clip-rule="evenodd" image-rendering="optimizeQuality" shape-rendering="geometricPrecision" text-rendering="geometricPrecision" viewBox="0 0 1706.66 1706.66"><defs><linearGradient id="a" x1="116.7" x2="1589.96" y1="853.33" y2="853.33" gradientUnits="userSpaceOnUse"><stop offset="0" stop-color="#ffb800"/><stop offset="1" stop-color="#ff5329"/></linearGradient></defs><path fill="url(#a)" d="M912.57 1706.64l-689 0c-58.94,0 -106.89,-47.96 -106.89,-106.9l0 -1346.95c0,-58.94 47.96,-106.9 106.89,-106.9l73.59 0c0.03,-12.78 1.07,-27.29 1.07,-41.46 0,-57.58 46.84,-104.41 104.41,-104.41l330.84 0c57.58,0 104.41,46.84 104.41,104.41 0,14.18 1.04,28.69 1.07,41.46l73.59 0c58.94,0 106.9,47.96 106.9,106.9l0 172.87c-163.41,30.75 -299.5,139.78 -367.74,286.5l-346.15 0c-11.04,0 -20,8.96 -20,20l0 208.33c0,11.03 8.96,20 20,20l300.06 0c1.65,24.69 5.08,48.9 10.14,72.51l-310.19 -0.01c-11.04,0 -20,8.96 -20,20l0 208.33c0,11.03 8.96,20 20,20l443.42 0c71.7,73.66 165.44,125.78 270.47,145.54l0 172.85c0.01,58.96 -47.95,106.92 -106.89,106.92zm201.31 -304.3c-262.51,0 -476.07,-213.56 -476.07,-476.07 0,-262.51 213.56,-476.09 476.07,-476.09 262.51,0 476.09,213.56 476.09,476.07 0,262.51 -213.57,476.09 -476.09,476.09zm43.12 -694.93c-0.26,0 -0.51,-0.03 -0.76,-0.06l13.13 -35.26c-195.69,-63.42 -391.57,139.11 -306.97,344.26 10.05,24.37 -26.98,39.51 -36.97,15.25 -98.1,-238.04 131.01,-472.62 357.95,-397.13l15 -40.3c5.01,1.05 9.62,4.01 12.63,8.64l45.15 69.12c8.41,12.86 -0.3,30.06 -15.64,30.92l-83.53 4.56zm-67.39 551.36c-13.75,0 -57.47,-43.15 -75.57,-58.75 -11.65,-10.03 -8.04,-28.96 6.46,-34.03l77.89 -27.21 0 37.54c196.03,8.44 345.35,-196.78 264.49,-389.38 -10.19,-24.25 26.7,-39.74 36.89,-15.47 88.56,210.94 -67.9,447.36 -301.37,443.7l0 41.58c-2.74,1.33 -5.75,2.02 -8.77,2.02zm-569.86 -688.43c-15.19,0 -25.05,-16.57 -17.3,-30l50.9 -88.17 -73.7 0c-16.11,0 -25.61,-18.22 -16.4,-31.43l95.83 -137.5c15.06,-21.61 47.85,1.29 32.8,22.86l-73.91 106.06 70.02 0c15.41,0 24.98,16.74 17.31,30l-68.22 118.17c-3.7,6.4 -10.41,10 -17.33,10zm115.39 181.81c-19.2,52.63 -29.94,109.28 -30.61,168.31l-278.98 0 0 -168.31 309.58 0zm-9.12 320.84c18.64,61.86 48.76,118.8 87.86,168.32l-388.32 0 0 -168.32 300.46 0zm204.54 529.15l-524.98 0c-11.04,0 -20,-8.97 -20,-20l0 -208.36c0,-11.04 8.96,-20 20,-20l524.98 0c11.04,0 20,8.97 20,20l0 208.34c0,11.04 -8.96,20.02 -20,20.02zm-504.98 -40.01l484.98 0 0 -168.33 -484.98 0 0 168.33z"/></svg>