<svg xmlns="http://www.w3.org/2000/svg" xmlns:xlink="http://www.w3.org/1999/xlink" viewBox="0 0 512 512"><defs><linearGradient id="a" x1="20.42" x2="403.59" y1="34.6" y2="544.29" gradientUnits="userSpaceOnUse"><stop offset="0" stop-color="#fec194"/><stop offset="1" stop-color="#ff0061"/></linearGradient><linearGradient id="b" x1="-24.3" x2="358.86" y1="68.22" y2="577.91" xlink:href="#a"/><linearGradient id="c" x1="-32.38" x2="350.78" y1="74.3" y2="583.99" xlink:href="#a"/><linearGradient id="d" x1="211.45" x2="594.61" y1="-109" y2="400.69" xlink:href="#a"/><linearGradient id="e" x1="183.99" x2="567.15" y1="-88.36" y2="421.33" xlink:href="#a"/><linearGradient id="f" x1="205.87" x2="589.03" y1="-104.81" y2="404.88" xlink:href="#a"/></defs><g data-name="15 Battery"><path fill="url(#a)" d="M359.48,165.5A66,66,0,0,1,308.54,57.61a6,6,0,0,0-4.64-9.82h-7.7V41.28A36.33,36.33,0,0,0,259.92,5H180.11a36.33,36.33,0,0,0-36.29,36.28v6.51h-27A42.31,42.31,0,0,0,74.53,90v94.23a6,6,0,0,0,12,0V90a30.28,30.28,0,0,1,30.25-30.25H292.39a78,78,0,0,0,61.09,117.49V464.74A30.29,30.29,0,0,1,323.23,495H116.78a30.29,30.29,0,0,1-30.25-30.26V231.07a6,6,0,0,0-12,0V464.74A42.3,42.3,0,0,0,116.78,507H323.23a42.3,42.3,0,0,0,42.25-42.26V171.5A6,6,0,0,0,359.48,165.5ZM284.2,47.79H155.82V41.28A24.31,24.31,0,0,1,180.11,17h79.81A24.31,24.31,0,0,1,284.2,41.28Z"/><path fill="url(#b)" d="M80.53,218.17a6,6,0,0,0,6-6v-9a6,6,0,0,0-12,0v9A6,6,0,0,0,80.53,218.17Z"/><path fill="url(#c)" d="M295.46,462.72A25.78,25.78,0,0,0,321.21,437V376.53a6,6,0,0,0-6-6H124.81a6,6,0,0,0-6,6V437a25.78,25.78,0,0,0,25.75,25.75ZM130.81,437V382.53h178.4V437a13.77,13.77,0,0,1-13.75,13.75H144.56A13.77,13.77,0,0,1,130.81,437Z"/><path fill="url(#d)" d="M359.49,45.48a6,6,0,0,0-6,6v72.89a6,6,0,0,0,12,0V51.48A6,6,0,0,0,359.49,45.48Z"/><path fill="url(#e)" d="M359.49,136.6a6,6,0,0,0-6,6v5a6,6,0,1,0,12,0v-5A6,6,0,0,0,359.49,136.6Z"/><path fill="url(#f)" d="M359.49,21.55a78,78,0,1,0,78,78A78.07,78.07,0,0,0,359.49,21.55Zm0,144a66,66,0,1,1,66-66A66.06,66.06,0,0,1,359.49,165.51Z"/></g></svg>