<svg xmlns="http://www.w3.org/2000/svg" data-name="Gradient Line" viewBox="0 0 64 64"><defs><linearGradient id="a" x1="4" x2="59.989" y1="32.015" y2="32.015" gradientUnits="userSpaceOnUse"><stop offset="0" stop-color="#ffde00"/><stop offset="1" stop-color="#fd5900"/></linearGradient></defs><path fill="url(#a)" d="m58.90869,26.24121l-4.77881-3.97986v-13.15491s.38135,0,.38135,0c1.29311-.00615,1.32894-1.98306-.00006-1.99999.00006-.00001-10.38812-.00001-10.38812-.00001-.55225,0-1,.44727-1,1,.01242.77854.69563,1.0781,1.38184.99996,0,.00004,0,5.1392,0,5.1392l-9.93262-8.27197c-1.45068-1.21582-3.6958-1.21484-5.14258-.00195L5.08447,26.24609c-.70068.59375-1.08594,1.41309-1.08447,2.30762-.02268,1.62449,1.38014,3.047,3.02052,3.02538-.00002.00001,2.85008.00001,2.85008.00001v21.65918c0,3.16016,2.57031,5.73047,5.72949,5.73047h11.3999c.55225,0,1-.44727,1-1s-.44775-1-1-1c0,0-11.3999,0-11.3999,0-2.05664,0-3.72949-1.67383-3.72949-3.73047v-22.19232l4.14893-3.45612c.42432-.35352.48145-.98438.12793-1.4082-.35449-.42676-.98389-.48242-1.4082-.12891l-4.23193,3.52637h-3.48682c-.56481.00052-1.01875-.47407-1.02052-1.02831-.00048-.20899.06495-.51368.37062-.77247L30.7124,7.50684c.74316-.62305,1.8291-.625,2.57715.00195l24.33838,20.26855c.51123.42676.36426.97461.30713,1.13281-.05664.15723-.29395.66895-.95605.66895h-3.48779l-20.85156-17.37793c-.37109-.30859-.90918-.30859-1.28027,0l-12.7793,10.65039c-.99465.84332.26437,2.36747,1.28032,1.53707-.00005.00004,12.13911-10.11715,12.13911-10.11715l20.13037,16.77704s0,2.9505,0,2.9505c0,.55273.44775,1,1,1s1-.44727,1-1v-2.41992h2.84912c2.75838.07137,4.105-3.62048,1.92969-5.33789Zm-12.40381-17.13477h5.625v11.48932l-5.625-4.68457v-6.80475Zm7.62402,29.89258v14.23926c0,3.16016-2.57031,5.73047-5.72998,5.73047h-11.39941c-.55225,0-1-.44727-1-1s.44775-1,1-1h11.39941c2.05664,0,3.72998-1.67383,3.72998-3.73047v-14.23926c0-.55273.44775-1,1-1s1,.44727,1,1Zm-9.66357,11.66016c.55225,0,1-.44727,1-1v-16.62109c0-.55273-.44775-1-1-1h-24.93164c-.55225,0-1,.44727-1,1v16.62109c0,.55273.44775,1,1,1h11.46582v7.31055c.01987,1.30723,1.97737,1.32031,2-.00005,0,.00005,0-7.3105,0-7.3105h11.46582Zm-23.93164-11.08105h4.23291v3.54102h-4.23291v-3.54102Zm6.23291,0h4.23291v3.54102h-4.23291v-3.54102Zm4.23291-2h-4.23291v-3.54004h4.23291v3.54004Zm2-3.54004h4.23291v3.54004h-4.23291v-3.54004Zm0,5.54004h4.23291v3.54102h-4.23291v-3.54102Zm10.46582,3.54102h-4.23291v-3.54102h4.23291v3.54102Zm-6.23291,2v3.54004h-4.23291v-3.54004h4.23291Zm2,3.54004v-3.54004h4.23291v3.54004h-4.23291Zm4.23291-11.08105h-4.23291v-3.54004h4.23291v3.54004Zm-18.69873-3.54004v3.54004h-4.23291v-3.54004h4.23291Zm-4.23291,11.08105h4.23291v3.54004h-4.23291v-3.54004Zm6.23291,3.54004v-3.54004h4.23291v3.54004h-4.23291Z"/></svg>