<svg xmlns="http://www.w3.org/2000/svg" fill-rule="evenodd" clip-rule="evenodd" image-rendering="optimizeQuality" shape-rendering="geometricPrecision" text-rendering="geometricPrecision" viewBox="0 0 1706.66 1706.66"><defs><linearGradient id="a" x1="17.8" x2="1688.79" y1="853.39" y2="853.39" gradientUnits="userSpaceOnUse"><stop offset="0" stop-color="#ffb800"/><stop offset="1" stop-color="#ff5329"/></linearGradient></defs><path fill="url(#a)" d="M912.56 1706.64l-689 0c-58.94,0 -106.89,-47.96 -106.89,-106.9l0 -1346.95c0,-58.94 47.96,-106.9 106.89,-106.9l73.59 0c0.03,-12.78 1.07,-27.29 1.07,-41.46 0,-57.58 46.84,-104.41 104.41,-104.41l330.84 0c57.58,0 104.41,46.84 104.41,104.41 0,14.18 1.04,28.69 1.07,41.46l73.59 0c58.94,0 106.9,47.96 106.9,106.9l0 206.81c293.8,-59.37 570.5,165.69 570.5,466.65 0,301.21 -277.06,526.08 -570.51,466.67l0 206.8c0.01,58.96 -47.95,106.92 -106.89,106.92zm-392.81 -1136.29c-15.19,0 -25.05,-16.57 -17.3,-30l50.9 -88.17 -73.7 0c-16.11,0 -25.61,-18.22 -16.4,-31.43l95.83 -137.5c15.06,-21.61 47.85,1.29 32.8,22.86l-73.91 106.06 70.02 0c15.41,0 24.98,16.74 17.31,30l-68.22 118.17c-3.7,6.4 -10.41,10 -17.33,10zm119.28 390.14l-333.46 0c-11.04,0 -20,-8.97 -20,-20l0 -208.33c0,-11.04 8.96,-20 20,-20l383.19 0c58.77,-116.2 163.8,-205.2 290.71,-242.62l0 -216.75c0,-36.89 -30,-66.9 -66.88,-66.9l-689.01 0c-36.89,0 -66.89,30.02 -66.89,66.9l0 1346.95c0,36.89 30.02,66.89 66.89,66.89l689 0c36.89,0 66.88,-30 66.88,-66.89l0.01 -216.75c-68.41,-20.17 -130.46,-55.33 -182.33,-101.66l-491.56 0c-11.04,0 -20,-8.97 -20,-20l0 -208.33c0,-11.04 8.96,-20 20,-20l344.32 0.01c-5.42,-23.56 -9.09,-47.78 -10.85,-72.51zm31.76 -208.33l-345.23 0 0 168.31 312.31 0c0.71,-59.32 12.31,-116.07 32.92,-168.31zm-9.83 320.84l-335.39 0 0 168.32 431.74 0c-42.81,-48.38 -75.94,-105.51 -96.34,-168.32zm156.29 172.56c0.56,0.46 1.08,0.95 1.57,1.47 77.71,71.53 181.36,115.28 295.06,115.28 240.45,0 436.07,-195.62 436.07,-436.06 0.01,-240.44 -195.61,-436.07 -436.07,-436.07 -240.45,0 -436.07,195.62 -436.07,436.07 0,125.98 53.73,239.63 139.44,319.31zm13.31 356.59l-524.98 0c-11.04,0 -20,-8.97 -20,-20l0 -208.36c0,-11.04 8.96,-20 20,-20l524.98 0c11.04,0 20,8.97 20,20l0 208.34c0,11.04 -8.96,20.02 -20,20.02zm-504.98 -40.01l484.98 0 0 -168.33 -484.98 0 0 168.33zm764.03 -303.37c-13.31,0 -54.72,-40.44 -73.77,-57.18 -14.69,-10.94 -10.29,-32.11 7.55,-36.61l75.03 -26.21c23.93,-8.37 37.04,26.33 15.78,36.67 186.93,-5.33 326.81,-202.41 248.67,-388.5 -10.19,-24.26 26.7,-39.74 36.89,-15.47 90.11,214.62 -74.26,451.95 -305.91,443.55 32.49,29.21 6.62,43.75 -4.24,43.75zm67.39 -551.36c-23.48,0 -26.37,-32.49 -6.85,-38.91 -188.13,-40.66 -368.85,151.22 -287.75,347.86 10.05,24.37 -26.98,39.51 -36.97,15.25 -97.44,-236.44 132.39,-466.9 358.61,-395.56 -27.21,-43.11 15.41,-50.95 26.97,-33.23l43.69 66.89c11.36,14.61 1.2,33.74 -16.9,33.3l-80.81 4.41zm-818.77 -561.53l459.67 0 0 -41.46c0,-35.51 -28.89,-64.41 -64.41,-64.41l-330.83 0c-35.53,0 -64.41,28.9 -64.41,64.41l-0.01 41.46z"/></svg>