<svg xmlns="http://www.w3.org/2000/svg" data-name="glipy copy" viewBox="0 0 64 64"><defs><linearGradient id="a" x1="4" x2="60" y1="32" y2="32" gradientUnits="userSpaceOnUse"><stop offset="0" stop-color="#ffde00"/><stop offset="1" stop-color="#fd5900"/></linearGradient></defs><path fill="url(#a)" d="M54.2264,27.52815a.99654.99654,0,1,1-1.24015,1.5602L50.286,26.928V51.69117a4.06621,4.06621,0,0,1-4.24059,3.86047H34.43393l7.2409-14.4818a3.01993,3.01993,0,0,0-2.67038-4.37049l-.83006-.00006,1.42022-5.64072a3.01751,3.01751,0,0,0-2.92047-3.69047H29.67332A2.97608,2.97608,0,0,0,26.823,29.41835L22.15241,43.44013a3.02576,3.02576,0,0,0,2.8504,3.93043l3.46039.00006c-.26162,1.60994-1.109,6.62827-1.36021,8.181H17.96188a4.0662,4.0662,0,0,1-4.24058-3.86047V26.928L11.021,29.08835a.9966.9966,0,0,1-1.24009-1.56026L31.38356,10.246a.9926.9926,0,0,1,1.24014,0Zm5.40522-1.07893L32.62822,4.84689a1.00011,1.00011,0,0,0-1.24918,0L4.37564,26.44922a.99993.99993,0,1,0,1.24918,1.56172L32.00363,6.90868,58.38244,28.01094a.99523.99523,0,0,0,.6241.21927A1.0069,1.0069,0,0,0,59.63162,26.44922ZM39.00451,38.69954H35.61407l2.03028-8.091a1.01917,1.01917,0,0,0-.19-.8601.98577.98577,0,0,0-.78013-.38005H29.67332a.991.991,0,0,0-.95013.68008L24.05262,44.05019a1.00995,1.00995,0,0,0,.95013,1.32018h5.82074c-.24,1.42016-1.48017,8.94112-1.70023,10.18127L28.6832,58.202a1.01132,1.01132,0,0,0,.99012,1.17013.99058.99058,0,0,0,.89012-.56007l2.63034-5.26067,6.70086-13.40165A1.002,1.002,0,0,0,39.00451,38.69954Z"/></svg>