<svg xmlns="http://www.w3.org/2000/svg" data-name="glipy copy" viewBox="0 0 64 64"><defs><linearGradient id="a" x1="3.997" x2="60.003" y1="32" y2="32" gradientUnits="userSpaceOnUse"><stop offset="0" stop-color="#ffde00"/><stop offset="1" stop-color="#fd5900"/></linearGradient></defs><path fill="url(#a)" d="M54.217,27.59293a.99424.99424,0,0,1,.16,1.41,1.01041,1.01041,0,0,1-1.41.15l-2.68994-2.15v24.75a4.0657,4.0657,0,0,1-4.24006,3.86H33.007v-10.84h10.99a1.003,1.003,0,0,0,1-1v-16a1.003,1.003,0,0,0-1-1h-24a1.003,1.003,0,0,0-1,1v16a1.003,1.003,0,0,0,1,1c1.45062.001,9.75128-.00147,11.01-.00006-.0008,1.91138.00109,11.874,0,13.55a1.00017,1.00017,0,0,1-2,.00006v-2.71H17.957a4.06569,4.06569,0,0,1-4.24-3.86v-24.75l-2.68994,2.15a.99953.99953,0,1,1-1.25-1.56l21.6-17.28a.99247.99247,0,0,1,1.24,0Zm5.405-1.0788-27-21.59961a1.00136,1.00136,0,0,0-1.25,0l-27,21.59961a1.00011,1.00011,0,1,0,1.25,1.56152L31.997,6.976,58.372,28.07565A1.00034,1.00034,0,0,0,59.622,26.51413ZM36.997,42.77292h6v-6h-6Zm-8,0h6v-6h-6Zm-8,0h6v-6h-6Zm6-14h-6v6h6Zm8,0h-6v6h6Zm8,0h-6v6h6Z"/></svg>