<svg xmlns="http://www.w3.org/2000/svg" viewBox="0 0 64 64"><path fill="#ff673f" d="M40 52.75c-7.03 0-12.75-5.72-12.75-12.75S32.97 27.25 40 27.25 52.75 32.97 52.75 40 47.03 52.75 40 52.75Zm0-24c-6.2 0-11.25 5.05-11.25 11.25S33.8 51.25 40 51.25 51.25 46.2 51.25 40 46.2 28.75 40 28.75Z"/><path fill="#ff673f" d="M58 60.75c-.73 0-1.42-.29-1.94-.81l-9.52-9.52 1.06-1.06 9.52 9.52c.47.47 1.29.47 1.77 0a1.234 1.234 0 0 0 0-1.76l-9.51-9.51 1.06-1.06 9.51 9.51c.52.52.81 1.21.81 1.94s-.29 1.42-.81 1.94-1.21.81-1.94.81zM44.24 46.99c-.7 0-1.41-.27-1.94-.8a2.758 2.758 0 0 1 0-3.89 2.758 2.758 0 0 1 3.89 0 2.758 2.758 0 0 1 0 3.89c-.54.54-1.24.8-1.95.8zm-.88-3.63a1.25 1.25 0 0 0 0 1.77c.49.49 1.28.49 1.77 0s.49-1.28 0-1.77c-.49-.48-1.28-.49-1.77 0zm-7.6-4.85c-.7 0-1.41-.27-1.94-.8-1.07-1.07-1.07-2.82 0-3.89s2.82-1.07 3.89 0 1.07 2.82 0 3.89c-.54.54-1.24.8-1.94.8zm0-4c-.32 0-.64.12-.88.37a1.25 1.25 0 0 0 0 1.77c.49.49 1.28.49 1.77 0s.49-1.28 0-1.77c-.24-.24-.56-.37-.88-.37zm-1.42 11.9c-.19 0-.38-.07-.53-.22a.754.754 0 0 1 0-1.06l11.31-11.31c.29-.29.77-.29 1.06 0s.29.77 0 1.06L34.87 46.19c-.15.15-.34.22-.53.22z"/><path fill="#8536e2" d="M48 12.75H4c-.41 0-.75-.34-.75-.75V7c0-2.07 1.68-3.75 3.75-3.75h38c2.07 0 3.75 1.68 3.75 3.75v5c0 .41-.34.75-.75.75Zm-43.25-1.5h42.5V7c0-1.24-1.01-2.25-2.25-2.25H7C5.76 4.75 4.75 5.76 4.75 7v4.25Z"/><path fill="#8536e2" d="M10 8.75H8c-.41 0-.75-.34-.75-.75s.34-.75.75-.75h2c.41 0 .75.34.75.75s-.34.75-.75.75zm38 18c-.41 0-.75-.34-.75-.75V12c0-.41.34-.75.75-.75s.75.34.75.75v14c0 .41-.34.75-.75.75zm-44 6c-.41 0-.75-.34-.75-.75V12c0-.41.34-.75.75-.75s.75.34.75.75v20c0 .41-.34.75-.75.75zm0 5c-.41 0-.75-.34-.75-.75v-2c0-.41.34-.75.75-.75s.75.34.75.75v2c0 .41-.34.75-.75.75zm22 7H4c-.41 0-.75-.34-.75-.75v-4c0-.41.34-.75.75-.75s.75.34.75.75v3.25H26c.41 0 .75.34.75.75s-.34.75-.75.75zm-10-36h-2c-.41 0-.75-.34-.75-.75s.34-.75.75-.75h2c.41 0 .75.34.75.75s-.34.75-.75.75zm10 20H8c-.41 0-.75-.34-.75-.75V16c0-.41.34-.75.75-.75h18c.41 0 .75.34.75.75v12c0 .41-.34.75-.75.75zm-17.25-1.5h16.5v-10.5H8.75v10.5zM44 16.75H30c-.41 0-.75-.34-.75-.75s.34-.75.75-.75h14c.41 0 .75.34.75.75s-.34.75-.75.75zm0 4H30c-.41 0-.75-.34-.75-.75s.34-.75.75-.75h14c.41 0 .75.34.75.75s-.34.75-.75.75zm-4 4H30c-.41 0-.75-.34-.75-.75s.34-.75.75-.75h10c.41 0 .75.34.75.75s-.34.75-.75.75zm-16 8H8c-.41 0-.75-.34-.75-.75s.34-.75.75-.75h16c.41 0 .75.34.75.75s-.34.75-.75.75zm0 4H8c-.41 0-.75-.34-.75-.75s.34-.75.75-.75h16c.41 0 .75.34.75.75s-.34.75-.75.75z"/><path fill="#8536e2" d="M22 40.75H8c-.41 0-.75-.34-.75-.75s.34-.75.75-.75h14c.41 0 .75.34.75.75s-.34.75-.75.75Z"/></svg>