<svg width="74" height="74" viewBox="0 0 74 74" fill="none" xmlns="http://www.w3.org/2000/svg">
<g filter="url(#filter0_di_101_16)">
<circle cx="36.7664" cy="34.7664" r="27.7664" fill="white"/>
<circle cx="36.7664" cy="34.7664" r="27.7664" stroke="#F24E1E" stroke-width="3"/>
</g>
<g filter="url(#filter1_i_101_16)">
<path d="M39.7 24.3328C38.5 24.0328 37.3 24.0328 36.1 24.0328L40.9 19.9828L43 25.9828C41.95 25.2328 40.9 24.7828 39.7 24.3328ZM29.5 27.1828C30.4 26.2828 31.45 25.5328 32.5 25.0828L26.35 23.8828L27.4 30.0328C28 28.9828 28.6 27.9328 29.5 27.1828ZM26.8 37.2328C26.5 36.0328 26.5 34.8328 26.5 33.6328L22.45 38.4328L28.45 40.5328C27.7 39.6328 27.1 38.4328 26.8 37.2328ZM50.5 45.0328C51.3284 45.0328 52 45.7044 52 46.5328C52 47.3612 51.3284 48.0328 50.5 48.0328H23.5L31.6 39.7828C28.75 36.7828 28.75 32.1328 31.6 29.1328C34.45 26.2828 39.25 26.2828 42.1 29.1328L45.5479 25.6849C46.1289 25.1039 47.0711 25.1039 47.6522 25.6849C48.2316 26.2644 48.2335 27.2031 47.6565 27.7849L30.55 45.0328H50.5Z" fill="#F24E1E"/>
</g>
<defs>
<filter id="filter0_di_101_16" x="0.5" y="0.5" width="72.5328" height="72.5328" filterUnits="userSpaceOnUse" color-interpolation-filters="sRGB">
<feFlood flood-opacity="0" result="BackgroundImageFix"/>
<feColorMatrix in="SourceAlpha" type="matrix" values="0 0 0 0 0 0 0 0 0 0 0 0 0 0 0 0 0 0 127 0" result="hardAlpha"/>
<feOffset dy="2"/>
<feGaussianBlur stdDeviation="3.5"/>
<feComposite in2="hardAlpha" operator="out"/>
<feColorMatrix type="matrix" values="0 0 0 0 0 0 0 0 0 0 0 0 0 0 0 0 0 0 0.1 0"/>
<feBlend mode="normal" in2="BackgroundImageFix" result="effect1_dropShadow_101_16"/>
<feBlend mode="normal" in="SourceGraphic" in2="effect1_dropShadow_101_16" result="shape"/>
<feColorMatrix in="SourceAlpha" type="matrix" values="0 0 0 0 0 0 0 0 0 0 0 0 0 0 0 0 0 0 127 0" result="hardAlpha"/>
<feOffset dy="4"/>
<feGaussianBlur stdDeviation="2"/>
<feComposite in2="hardAlpha" operator="arithmetic" k2="-1" k3="1"/>
<feColorMatrix type="matrix" values="0 0 0 0 0 0 0 0 0 0 0 0 0 0 0 0 0 0 0.25 0"/>
<feBlend mode="normal" in2="shape" result="effect2_innerShadow_101_16"/>
</filter>
<filter id="filter1_i_101_16" x="19" y="16.5328" width="36" height="37" filterUnits="userSpaceOnUse" color-interpolation-filters="sRGB">
<feFlood flood-opacity="0" result="BackgroundImageFix"/>
<feBlend mode="normal" in="SourceGraphic" in2="BackgroundImageFix" result="shape"/>
<feColorMatrix in="SourceAlpha" type="matrix" values="0 0 0 0 0 0 0 0 0 0 0 0 0 0 0 0 0 0 127 0" result="hardAlpha"/>
<feOffset dy="2"/>
<feGaussianBlur stdDeviation="0.5"/>
<feComposite in2="hardAlpha" operator="arithmetic" k2="-1" k3="1"/>
<feColorMatrix type="matrix" values="0 0 0 0 0.425 0 0 0 0 0.425 0 0 0 0 0.425 0 0 0 0.25 0"/>
<feBlend mode="normal" in2="shape" result="effect1_innerShadow_101_16"/>
</filter>
</defs>
</svg>
