<svg width="30" height="29" viewBox="0 0 30 29" fill="none" xmlns="http://www.w3.org/2000/svg">
<path d="M17.25 4.35C16.05 4.05 14.85 4.05 13.65 4.05L18.45 0L20.55 6C19.5 5.25 18.45 4.8 17.25 4.35ZM7.05 7.2C7.95 6.3 9 5.55 10.05 5.1L3.9 3.9L4.95 10.05C5.55 9 6.15 7.95 7.05 7.2ZM4.35 17.25C4.05 16.05 4.05 14.85 4.05 13.65L0 18.45L6 20.55C5.25 19.65 4.65 18.45 4.35 17.25ZM28.05 25.05C28.8784 25.05 29.55 25.7216 29.55 26.55V26.55C29.55 27.3784 28.8784 28.05 28.05 28.05H2.48346C1.95026 28.05 1.68071 27.4076 2.05427 27.0271L9.15 19.8C6.3 16.8 6.3 12.15 9.15 9.15C12 6.3 16.8 6.3 19.65 9.15L23.0978 5.70216C23.6789 5.12107 24.6211 5.12107 25.2022 5.70216V5.70216C25.7816 6.28156 25.7835 7.22036 25.2065 7.80214L8.1 25.05H28.05Z" fill="#000958"/>
</svg>
