<svg xmlns="http://www.w3.org/2000/svg" xmlns:xlink="http://www.w3.org/1999/xlink" data-name="Layer 1" viewBox="0 0 512 512"><defs><linearGradient id="a" x1="312.371" x2="312.371" y1="462.094" y2="65.836" gradientUnits="userSpaceOnUse"><stop offset=".322" stop-color="#a163f5"/><stop offset=".466" stop-color="#b074ee"/><stop offset=".752" stop-color="#d8a1dd"/><stop offset=".898" stop-color="#efbad3"/></linearGradient><linearGradient id="b" x1="156.51" x2="156.51" y1="462.094" y2="65.836" xlink:href="#a"/><linearGradient id="c" x1="167.015" x2="167.015" y1="462.094" y2="65.836" xlink:href="#a"/><linearGradient id="d" x1="101.355" x2="101.355" y1="462.094" y2="65.836" xlink:href="#a"/><linearGradient id="e" x1="98.456" x2="98.456" y1="462.094" y2="65.836" xlink:href="#a"/><linearGradient id="f" x1="116.165" x2="116.165" y1="462.094" y2="65.836" xlink:href="#a"/><linearGradient id="g" x1="380.007" x2="380.007" y1="462.094" y2="65.836" xlink:href="#a"/><linearGradient id="h" x1="411.425" x2="411.425" y1="462.094" y2="65.836" xlink:href="#a"/><linearGradient id="i" x1="244.934" x2="244.934" y1="462.094" y2="65.836" xlink:href="#a"/><linearGradient id="j" x1="207.361" x2="207.361" y1="462.094" y2="65.836" xlink:href="#a"/><linearGradient id="k" x1="256" x2="256" y1="462.094" y2="65.836" xlink:href="#a"/></defs><path fill="url(#a)" d="M308.827 22.723a5.993 5.993 0 0 0 7.828-3.273l2.533-6.173a6 6 0 0 0-11.1-4.554l-2.534 6.177a6 6 0 0 0 3.273 7.823Z"/><path fill="url(#b)" d="M151.985 26.766a6 6 0 0 0 10.146-6.408l-1.095-1.733a6 6 0 1 0-10.146 6.407Z"/><path fill="url(#c)" d="m159.817 39.168 4.249 6.728a6 6 0 1 0 10.147-6.407l-4.249-6.728a6 6 0 0 0-10.147 6.407Z"/><path fill="url(#d)" d="M100.489 160a6 6 0 0 0 0 12h1.733a6 6 0 0 0 0-12Z"/><path fill="url(#e)" d="m93.64 85.616 3.2 2.032a6 6 0 1 0 6.428-10.132l-3.2-2.033a6 6 0 0 0-6.428 10.133Z"/><path fill="url(#f)" d="m110.045 96.118 5.809 3.686a6 6 0 1 0 6.43-10.132l-5.808-3.686a6 6 0 1 0-6.431 10.132Z"/><path fill="url(#g)" d="M377.784 60.6a5.981 5.981 0 0 0 4.058-1.581l4.449-4.087a6 6 0 0 0-8.12-8.837l-4.448 4.087a6 6 0 0 0 4.061 10.418Z"/><path fill="url(#h)" d="M407.7 134.735a5.949 5.949 0 0 0 1.335-.151l7.44-1.69a6 6 0 0 0-2.659-11.7l-7.441 1.691a6 6 0 0 0 1.325 11.852Z"/><path fill="url(#i)" d="M245.751 97.674a67.87 67.87 0 0 0-3.711.653 6 6 0 1 0 2.382 11.76 62.935 62.935 0 0 1 3.1-.545 6 6 0 0 0-1.772-11.868Z"/><path fill="url(#j)" d="M222.269 105.438a72.9 72.9 0 0 0-38.643 64.407 6 6 0 0 0 12 0 60.924 60.924 0 0 1 32.295-53.823 6 6 0 1 0-5.652-10.584Z"/><path fill="url(#k)" d="M445 215.088A34.347 34.347 0 0 0 410.509 184h-38.145a23.765 23.765 0 0 1 4.779-39.38l11.234-5.667a5.74 5.74 0 0 0 3.126-6.582 5.823 5.823 0 0 0-5.827-4.371h-.076l-12.606-.037a23.763 23.763 0 0 1-21.7-12.99 23.375 23.375 0 0 1 1.736-24.812l7.3-10.231.006-.023 9.832-9.041a6 6 0 0 0-8.12-8.84l-10.56 9.7-.009.009-9.956 5.354a23.828 23.828 0 0 1-25.295-1.423 23.377 23.377 0 0 1-10.06-22.726l1.5-11.046 3.147-7.671a6 6 0 0 0-11.1-4.554l-2.72 6.633c-.018.025-.04.045-.057.07l-7.018 10.391a24.173 24.173 0 0 1-42.635-5.124l-4.316-11.76c-.064-.176-.154-.334-.234-.5l-1.111-8.892a6 6 0 1 0-11.908 1.49l1.34 10.714c.022.172.074.331.11.5l-1.149 10.552a23.491 23.491 0 0 1-15.3 19.71 23.814 23.814 0 0 1-24.862-4.635l-9.325-8.421a6 6 0 0 0-9.6 6.667l4.627 11.65a23.306 23.306 0 0 1-4.274 24.439 23.781 23.781 0 0 1-24.21 7.387l-12.2-3.158a6 6 0 0 0-5.406 10.366l9.545 8.174a23.786 23.786 0 0 1-10.281 41.29l-12.279 2.834a6 6 0 0 0 0 11.693l12.279 2.835A23.834 23.834 0 0 1 142.947 184h-41.459A34.348 34.348 0 0 0 67 215.088L50.223 387.355A34.349 34.349 0 0 0 84.715 425h95.074c2.786 15 15.969 27 31.775 27H226v12h-4.214a36.937 36.937 0 0 0-36.817 36.908 6.079 6.079 0 0 0 6 6.092h130.064a6.079 6.079 0 0 0 6-6.092A36.937 36.937 0 0 0 290.216 464H286v-12h14.437c15.806 0 28.989-12 31.775-27h95.073a34.431 34.431 0 0 0 34.492-37.711ZM437.346 260h-47.163l-2.562-26h47.164Zm-26.837-64a22.484 22.484 0 0 1 22.549 20.357l.559 5.643h-47.164l-2.55-26Zm-32.383 64h-52.494l-2.124-26h52.057Zm-6.28-64 2.551 26H322.54l-2.115-26ZM191.267 337l2.123-27H250v27ZM250 349v26h-61.824l2.123-26Zm-55.642-51 2.123-26H250v26Zm3.092-38 2.123-26H250v26Zm3.091-38 2.114-26H250v26ZM179.6 184a74.362 74.362 0 1 1 144.279 0Zm131.869 50 2.124 26H262v-26ZM262 222v-26h46.387l2.114 26Zm52.562 50 2.123 26H262v-26Zm3.091 38 2.124 27H262v-27ZM262 349h58.745l2.124 26H262ZM139.767 165.878a35.788 35.788 0 0 0 13.018-52.555h.458a35.972 35.972 0 0 0 27.041-12.239 35.553 35.553 0 0 0 8.65-28.336 36.2 36.2 0 0 0 51.032-19.239 36.256 36.256 0 0 0 54.192 6.546 35.656 35.656 0 0 0 15.228 25.473 36.061 36.061 0 0 0 29.668 5.328 35.865 35.865 0 0 0 25.318 47.958A35.878 35.878 0 0 0 356.856 184h-20.672a86.353 86.353 0 1 0-168.9 0h-10.705a35.315 35.315 0 0 0-16.812-18.122Zm.384 30.122h50.465l-2.116 26h-50.9Zm-3.718 38h51.1l-2.123 26h-51.538Zm-57.494-17.643A22.485 22.485 0 0 1 101.488 196h26.606l-2.55 26H78.38ZM77.213 234h47.163l-2.56 26H74.652Zm29.7 179h-22.2a22.452 22.452 0 0 1-22.549-24.681L62.3 387h47.164Zm3.717-38H63.466l2.561-26h47.163Zm3.729-38H67.194l2.561-27h47.164Zm-43.436-39 2.561-26h47.164l-2.561 26Zm102.132 115h-54.087l2.55-26h53.651Zm3.082-38h-53.451l2.561-26h53.013Zm3.092-38h-52.814l2.561-27h52.376Zm3.091-39h-52.177l2.561-26h51.739Zm2.774 115 2.114-26H250v26Zm105.122 63a25.024 25.024 0 0 1 24.084 19H197.7a25.024 25.024 0 0 1 24.084-19ZM238 464v-12h36v12Zm62.437-24h-88.873a20.1 20.1 0 0 1-19.444-15h127.761a20.1 20.1 0 0 1-19.444 15ZM262 413v-26h61.837l2.115 26Zm64.6-141h52.694l2.561 26h-53.131Zm5.215 65-2.123-27h53.331l2.561 27Zm.969 12h53.968l2.562 26h-54.407Zm5.206 64-2.114-26h54.606l2.55 26Zm53.361-141h47.163l2.561 26h-47.163Zm3.729 38h47.163l2.562 27h-47.164Zm3.729 39h47.164l2.561 26H401.37Zm45.254 56.7a22.278 22.278 0 0 1-16.778 7.3h-22.2l-2.551-26H449.7l.132 1.319a22.317 22.317 0 0 1-5.769 17.381Z"/></svg>