<svg xmlns="http://www.w3.org/2000/svg" enable-background="new 0 0 128 128" viewBox="0 0 128 128"><linearGradient id="a" x1="34.721" x2="99.194" y1="30.423" y2="94.896" gradientUnits="userSpaceOnUse"><stop offset="0" stop-color="#ea15ff"/><stop offset="1" stop-color="#3fdaff"/></linearGradient><path fill="url(#a)" d="M73.13,57.48c-1.329-2.906-4.742-5.097-7.938-5.097H51.096c-0.004,0-0.008,0-0.012,0H15.21
			c-1.835,0-3.476,0.771-4.502,2.117s-1.335,3.132-0.85,4.902l10.905,39.725c0.877,3.193,4.158,5.695,7.47,5.695h11.913v3.92h-2.539
			c-1.381,0-2.5,1.119-2.5,2.5v6.512c0,1.381,1.119,2.5,2.5,2.5h28.371c1.381,0,2.5-1.119,2.5-2.5v-6.512c0-1.381-1.119-2.5-2.5-2.5
			h-2.539v-3.92h6.839c0.001,0,0.002,0,0.002,0c0.003,0,0.004,0,0.006,0h16.611c1.917,0,3.535-0.808,4.439-2.217
			c0.905-1.409,0.967-3.217,0.17-4.96L73.13,57.48z M74.174,71.779l5.547,12.125H65.513l-4.914-12.125H74.174z M65.192,57.383
			c1.231,0,2.879,1.058,3.391,2.177l3.303,7.219H58.573l-3.809-9.396H65.192z M60.118,83.904H42.202l-3.883-12.125h16.886
			L60.118,83.904z M49.37,57.383l3.808,9.396h-16.46l-3.009-9.396H49.37z M14.68,58.078c-0.075-0.274-0.052-0.472,0.004-0.546
			s0.241-0.149,0.526-0.149h13.248l3.009,9.396H17.069L14.68,58.078z M21.77,83.904l-3.328-12.125h14.627l3.883,12.125H21.77z
			 M28.233,99.822c-1.076,0-2.363-0.981-2.648-2.019l-2.443-8.899h15.411l3.497,10.918H28.233z M63.478,113.742v1.512H40.107v-1.512
			h2.539h18.293H63.478z M45.146,108.742v-3.92h0.322c0.002,0,0.004,0,0.006,0s0.004,0,0.006,0h12.958v3.92H45.146z M60.939,99.822
			H47.3l-3.497-10.918h18.342l4.425,10.918H60.939z M86.897,99.822H71.964L67.54,88.904h14.469l4.951,10.821
			c0.016,0.034,0.029,0.065,0.04,0.094C86.968,99.821,86.935,99.822,86.897,99.822z"/><linearGradient id="b" x1="34.721" x2="99.194" y1="30.423" y2="94.896" gradientUnits="userSpaceOnUse"><stop offset="0" stop-color="#ea15ff"/><stop offset="1" stop-color="#3fdaff"/></linearGradient><path fill="url(#b)" d="M86.403,26.97c-7.534,0-13.663,6.129-13.663,13.663c0,7.533,6.129,13.662,13.663,13.662
			c7.533,0,13.662-6.129,13.662-13.662C100.065,33.099,93.936,26.97,86.403,26.97z M86.403,49.295c-4.776,0-8.663-3.886-8.663-8.662
			s3.886-8.663,8.663-8.663s8.662,3.886,8.662,8.663S91.179,49.295,86.403,49.295z"/><linearGradient id="c" x1="34.721" x2="99.194" y1="30.423" y2="94.896" gradientUnits="userSpaceOnUse"><stop offset="0" stop-color="#ea15ff"/><stop offset="1" stop-color="#3fdaff"/></linearGradient><path fill="url(#c)" d="M86.403,22.978c1.381,0,2.5-1.119,2.5-2.5V10.246c0-1.381-1.119-2.5-2.5-2.5s-2.5,1.119-2.5,2.5
			v10.232C83.903,21.859,85.022,22.978,86.403,22.978z"/><linearGradient id="d" x1="34.721" x2="99.194" y1="30.423" y2="94.896" gradientUnits="userSpaceOnUse"><stop offset="0" stop-color="#ea15ff"/><stop offset="1" stop-color="#3fdaff"/></linearGradient><path fill="url(#d)" d="M116.79,38.133h-10.232c-1.381,0-2.5,1.119-2.5,2.5s1.119,2.5,2.5,2.5h10.232
			c1.381,0,2.5-1.119,2.5-2.5S118.17,38.133,116.79,38.133z"/><linearGradient id="e" x1="34.721" x2="99.194" y1="30.423" y2="94.896" gradientUnits="userSpaceOnUse"><stop offset="0" stop-color="#ea15ff"/><stop offset="1" stop-color="#3fdaff"/></linearGradient><path fill="url(#e)" d="M70.384,28.149c0.488,0.488,1.128,0.732,1.768,0.732s1.28-0.244,1.768-0.732
			c0.976-0.976,0.976-2.559,0-3.536l-7.235-7.234c-0.977-0.976-2.559-0.976-3.536,0c-0.976,0.976-0.976,2.559,0,3.536L70.384,28.149
			z"/><linearGradient id="f" x1="34.721" x2="99.194" y1="30.423" y2="94.896" gradientUnits="userSpaceOnUse"><stop offset="0" stop-color="#ea15ff"/><stop offset="1" stop-color="#3fdaff"/></linearGradient><path fill="url(#f)" d="M56.017,43.132h10.232c1.381,0,2.5-1.119,2.5-2.5s-1.119-2.5-2.5-2.5H56.017
			c-1.381,0-2.5,1.119-2.5,2.5S54.636,43.132,56.017,43.132z"/><linearGradient id="g" x1="34.721" x2="99.194" y1="30.423" y2="94.896" gradientUnits="userSpaceOnUse"><stop offset="0" stop-color="#ea15ff"/><stop offset="1" stop-color="#3fdaff"/></linearGradient><path fill="url(#g)" d="M88.903,71.018V60.785c0-1.381-1.119-2.5-2.5-2.5s-2.5,1.119-2.5,2.5v10.232
			c0,1.381,1.119,2.5,2.5,2.5S88.903,72.398,88.903,71.018z"/><linearGradient id="h" x1="34.721" x2="99.194" y1="30.423" y2="94.896" gradientUnits="userSpaceOnUse"><stop offset="0" stop-color="#ea15ff"/><stop offset="1" stop-color="#3fdaff"/></linearGradient><path fill="url(#h)" d="M102.421,53.115c-0.976-0.977-2.56-0.977-3.535,0c-0.977,0.976-0.977,2.559,0,3.535l7.234,7.234
			c0.488,0.488,1.128,0.732,1.768,0.732s1.28-0.244,1.768-0.732c0.977-0.976,0.977-2.559,0-3.535L102.421,53.115z"/><linearGradient id="i" x1="34.721" x2="99.194" y1="30.423" y2="94.896" gradientUnits="userSpaceOnUse"><stop offset="0" stop-color="#ea15ff"/><stop offset="1" stop-color="#3fdaff"/></linearGradient><path fill="url(#i)" d="M100.653,28.881c0.64,0,1.279-0.244,1.768-0.732l7.236-7.234c0.977-0.976,0.977-2.559,0-3.536
			c-0.977-0.977-2.559-0.977-3.536,0l-7.236,7.234c-0.977,0.976-0.977,2.559,0,3.536C99.374,28.637,100.013,28.881,100.653,28.881z"/></svg>