<svg xmlns="http://www.w3.org/2000/svg" viewBox="0 0 512 512"><path fill="#011839" d="M354.5,197c-84.33,0-153.39,66.62-157.32,150H37.5a22.5,22.5,0,0,1,0-45h70A37.54,37.54,0,0,0,145,264.5V212h57.5a22.5,22.5,0,0,0,0-45H160V147.5a7.5,7.5,0,0,0-15,0V167H130V147.5a7.5,7.5,0,0,0-15,0V167H72.5a22.5,22.5,0,0,0,0,45H130v52.5A22.52,22.52,0,0,1,107.5,287h-70a37.5,37.5,0,0,0,0,75H197.18c3.93,83.38,73,150,157.32,150C441.35,512,512,441.35,512,354.5S441.35,197,354.5,197ZM65,189.5a7.5,7.5,0,0,1,7.5-7.5h130a7.5,7.5,0,0,1,0,15H72.5A7.5,7.5,0,0,1,65,189.5ZM354.5,497C275.92,497,212,433.07,212,354.5S275.92,212,354.5,212,497,275.93,497,354.5,433.08,497,354.5,497Z"/><path fill="#011839" d="M354.5,227A127.5,127.5,0,1,0,482,354.5,127.65,127.65,0,0,0,354.5,227Zm0,240A112.5,112.5,0,1,1,467,354.5,112.63,112.63,0,0,1,354.5,467Z"/><path fill="#011839" d="M399.5,332.39H380.83l14.78-50.8A7.51,7.51,0,0,0,388.4,272h-57a7.5,7.5,0,0,0-7.26,5.63l-21.88,85.16a7.48,7.48,0,0,0,7.26,9.36h22.16l3,57.74a7.5,7.5,0,0,0,13.81,3.65l57.33-89.6a7.51,7.51,0,0,0-6.32-11.55Zm-51.06,73.39-2.17-41.52a7.51,7.51,0,0,0-7.49-7.11H319.17l18-70.15h41.21l-14.78,50.8a7.5,7.5,0,0,0,7.21,9.59h15Z"/><rect width="275" height="30" y="100" fill="#7738c8"/><polygon fill="#7738c8" points="180.2 0 94.8 0 89.39 35 185.61 35 180.2 0"/><polygon fill="#7738c8" points="187.93 50 87.07 50 81.66 85 193.34 85 187.93 50"/><path fill="#7738c8" d="M256.29 35L248.6 5.6A7.5 7.5 0 00241.34 0h-46l5.41 35zM79.62 0h-46A7.5 7.5 0 0026.4 5.6L18.71 35h55.5z"/><polygon fill="#7738c8" points="208.52 85 269.37 85 260.21 50 203.11 50 208.52 85"/><polygon fill="#7738c8" points="71.89 50 14.79 50 5.63 85 66.48 85 71.89 50"/></svg>