<svg xmlns="http://www.w3.org/2000/svg" viewBox="0 0 512 512"><path fill="#011839" d="M187.12 351.49L234 414a27.5 27.5 0 0044 0l46.88-62.51c66.58-27.24 113.62-92.72 113.62-169C438.5 81.87 356.63 0 256 0S73.5 81.87 73.5 182.5C73.5 258.77 120.54 324.25 187.12 351.49zM266 405a12.5 12.5 0 01-20 0l-34-45.38a182.94 182.94 0 0088.08 0zM256 15c92.36 0 167.5 75.14 167.5 167.5S348.36 350 256 350 88.5 274.86 88.5 182.5 163.64 15 256 15zM366 447H146a27.54 27.54 0 00-27.5 27.5v30A7.5 7.5 0 00126 512H386a7.5 7.5 0 007.5-7.5v-30A27.54 27.54 0 00366 447zm12.5 50h-245V474.5A12.52 12.52 0 01146 462H366a12.52 12.52 0 0112.5 12.5z"/><polygon fill="#7738c8" points="303.99 195 296.67 160 215.33 160 208.01 195 303.99 195"/><path fill="#7738c8" d="M298.5,137.5a42.5,42.5,0,1,0-84.33,7.5h83.66A42.69,42.69,0,0,0,298.5,137.5Z"/><polygon fill="#7738c8" points="314.45 245 307.13 210 204.87 210 197.54 245 314.45 245"/><path fill="#7738c8" d="M130.56 260a147.77 147.77 0 0010.64 15H370.8a147.77 147.77 0 0010.64-15zM356.88 290H278.5v38.29A147.15 147.15 0 00356.88 290z"/><polygon fill="#7738c8" points="369.56 210 322.45 210 329.78 245 380.25 245 369.56 210"/><path fill="#7738c8" d="M263.5 290h-15v39.81q3.72.19 7.5.19t7.5-.19zM145 150.31a7.51 7.51 0 017.18-5.31H199a56.8 56.8 0 01-.5-7.5 57.5 57.5 0 01115 0 56.8 56.8 0 01-.5 7.5h46.84a7.51 7.51 0 017.18 5.31l26.29 86.08A146.89 146.89 0 00403.5 182.5C403.5 101.17 337.33 35 256 35S108.5 101.17 108.5 182.5a146.89 146.89 0 0010.19 53.89zM233.5 290H155.12a147.15 147.15 0 0078.38 38.29z"/><polygon fill="#7738c8" points="147.02 195 192.68 195 200.01 160 157.71 160 147.02 195"/><polygon fill="#7738c8" points="311.99 160 319.32 195 364.98 195 354.29 160 311.99 160"/><polygon fill="#7738c8" points="182.22 245 189.54 210 142.44 210 131.75 245 182.22 245"/></svg>