<svg xmlns="http://www.w3.org/2000/svg" data-name="glipy copy 2" viewBox="0 0 64 64"><defs><linearGradient id="a" x1="6.083" x2="57.917" y1="32" y2="32" gradientUnits="userSpaceOnUse"><stop offset="0" stop-color="#ffde00"/><stop offset="1" stop-color="#fd5900"/></linearGradient></defs><path fill="url(#a)" d="M32.04554,4.00189A26.01628,26.01628,0,0,0,7.12568,22.792a3.02526,3.02526,0,0,1,3.30987,2.44989,21.7046,21.7046,0,0,0,18.61,18.1v-.96a3.017,3.017,0,0,1,4.66-2.48993l12.47,8.30994a3.03691,3.03691,0,0,1,1.33,2.55C67.2942,35.95434,57.06434,4.16021,32.04554,4.00189Zm13.98,10.53,1.02-1.01995a.99718.99718,0,0,1,1.41,1.41c-.39581.32349-1.1347,1.38776-1.72,1.32A1.00977,1.00977,0,0,1,46.02558,14.53185Zm-27.96,1.41a.97853.97853,0,0,1-1.41,0c-.576-.63495-1.91851-1.48035-1.01989-2.43a.99572.99572,0,0,1,1.40991,0C17.62171,14.147,18.964,14.99188,18.06556,15.94189Zm11.4,19.12a1.00012,1.00012,0,0,1-.00006,2H21.04554a1.0042,1.0042,0,0,1-.68994-1.72009l7.18994-6.93994c3.0841-3.22076-1.69849-7.33221-4.78009-4.50989l-1.0199.98993a1.001,1.001,0,0,1-1.39-1.44006c1.2503-1.36286,2.83-2.57276,4.8-2.49982,4.59675-.13769,7.2146,5.72754,3.77979,8.8999l-5.40985,5.22Zm3.58-25.91a1.00016,1.00016,0,0,1-2-.00006V7.71185a1.00011,1.00011,0,0,1,2,0Zm10,25.09h-.44v1.82a1.00011,1.00011,0,0,1-2-.00006V34.24188h-6.03a1.009,1.009,0,0,1-.85-1.53009l7.03-11.29993a1.00769,1.00769,0,0,1,1.85.53009V32.24188h.44A1.00011,1.00011,0,0,1,43.04554,34.24188Zm5.41,12.1a1.00451,1.00451,0,0,1-1.41,0c-.58106-.637-1.91815-1.485-1.02-2.44a.99592.99592,0,0,1,1.41,0C48.01691,44.5393,49.35364,45.38665,48.45551,46.34185Zm5.80005-15.42h-1.44a1.0001,1.0001,0,0,1,.00006-2h1.43994A1.00011,1.00011,0,0,1,54.25556,30.92187Zm-8.75,19.77a.99709.99709,0,0,1-.44.83l-4.18,2.79-8.29,5.52a1.0032,1.0032,0,0,1-1.55-.83v-3.17c-15.2533-.25421-27.38342-15.23-24.54975-30.24017a1.01114,1.01114,0,0,1,1.99976.15027,23.80639,23.80639,0,0,0,22.55,19.77991v-3.14a1.00727,1.00727,0,0,1,1.55-.83l12.47,8.31A1.03533,1.03533,0,0,1,45.50556,50.69189Zm-9.13-18.45,4.23-6.8v6.8Z"/></svg>