<svg xmlns="http://www.w3.org/2000/svg" viewBox="0 0 512 512"><path fill="#011839" d="M504.5,222a7.5,7.5,0,0,0,7.5-7.5v-40a7.5,7.5,0,0,0-7.5-7.5h-31V134.5A7.5,7.5,0,0,0,466,127H426a7.5,7.5,0,0,0-7.5,7.5V167h-75V147.5a7.5,7.5,0,0,0-15,0V167h-15V147.5a7.5,7.5,0,0,0-15,0V167h-85V147.5a7.5,7.5,0,0,0-15,0V167h-15V147.5a7.5,7.5,0,0,0-15,0V167h-75V134.5A7.5,7.5,0,0,0,86,127H46a7.5,7.5,0,0,0-7.5,7.5V167H7.5A7.5,7.5,0,0,0,0,174.5v40A7.5,7.5,0,0,0,7.5,222h11V467H7.5A7.5,7.5,0,0,0,0,474.5v30A7.5,7.5,0,0,0,7.5,512h497a7.5,7.5,0,0,0,7.5-7.5v-30a7.5,7.5,0,0,0-7.5-7.5h-11V222Zm-71-80h25v25h-25Zm-380,0h25v25h-25ZM15,182H497v25H15ZM497,497H15V482H497Zm-18.5-30H33.5V222h445Z"/><path fill="#011839" d="M206 364.18h25.39l3.42 70.68a7.5 7.5 0 005.69 6.92 7.39 7.39 0 001.8.22 7.48 7.48 0 006.45-3.68l63.7-107.52A7.5 7.5 0 00306 319.47H283.94l17-63a7.5 7.5 0 00-7.24-9.45H230.32a7.49 7.49 0 00-7.3 5.76L198.7 355a7.51 7.51 0 007.3 9.23zM236.24 262h47.64l-17 63a7.5 7.5 0 007.24 9.45h18.69l-44.26 74.71L246 356.32a7.51 7.51 0 00-7.5-7.14h-23zM56 282h90a7.5 7.5 0 007.5-7.5v-30A7.5 7.5 0 00146 237H56a7.5 7.5 0 00-7.5 7.5v30A7.5 7.5 0 0056 282zm7.5-30h75v15h-75zM56 342h60a7.5 7.5 0 007.5-7.5v-30A7.5 7.5 0 00116 297H56a7.5 7.5 0 00-7.5 7.5v30A7.5 7.5 0 0056 342zm7.5-30h45v15h-45zM366 442h20a7.5 7.5 0 000-15H366a7.5 7.5 0 000 15zM426 442h20a7.5 7.5 0 000-15H426a7.5 7.5 0 000 15z"/><rect width="275" height="30" x="118.5" y="100" fill="#7738c8"/><polygon fill="#7738c8" points="298.7 0 213.3 0 207.89 35 304.11 35 298.7 0"/><polygon fill="#7738c8" points="306.43 50 205.57 50 200.16 85 311.84 85 306.43 50"/><path fill="#7738c8" d="M374.79 35L367.1 5.6A7.5 7.5 0 00359.84 0h-46l5.41 35zM198.12 0h-46a7.5 7.5 0 00-7.26 5.6L137.21 35h55.5z"/><polygon fill="#7738c8" points="327.02 85 387.87 85 378.71 50 321.61 50 327.02 85"/><polygon fill="#7738c8" points="190.39 50 133.29 50 124.13 85 184.98 85 190.39 50"/></svg>