<svg xmlns="http://www.w3.org/2000/svg" viewBox="0 0 32 32"><path fill="#011839" d="M30 11a1 1 0 0 0-1 1v17H3V12a1 1 0 0 0-2 0v18a1 1 0 0 0 1 1h28a1 1 0 0 0 1-1V12a1 1 0 0 0-1-1Z"/><path fill="#011839" d="M6 19h4a1 1 0 0 0 1-1v-4a1 1 0 0 0-1-1H6a1 1 0 0 0-1 1v4a1 1 0 0 0 1 1zm1-4h2v2H7zm7 4h4a1 1 0 0 0 1-1v-4a1 1 0 0 0-1-1h-4a1 1 0 0 0-1 1v4a1 1 0 0 0 1 1zm1-4h2v2h-2zm7 4h4a1 1 0 0 0 1-1v-4a1 1 0 0 0-1-1h-4a1 1 0 0 0-1 1v4a1 1 0 0 0 1 1zm1-4h2v2h-2zM6 27h4a1 1 0 0 0 1-1v-4a1 1 0 0 0-1-1H6a1 1 0 0 0-1 1v4a1 1 0 0 0 1 1zm1-4h2v2H7zm7 4h4a1 1 0 0 0 1-1v-4a1 1 0 0 0-1-1h-4a1 1 0 0 0-1 1v4a1 1 0 0 0 1 1zm1-4h2v2h-2zm7 4h4a1 1 0 0 0 1-1v-4a1 1 0 0 0-1-1h-4a1 1 0 0 0-1 1v4a1 1 0 0 0 1 1zm1-4h2v2h-2z"/><path fill="#7738c8" d="M30 3h-3v3a1 1 0 0 1-2 0V3H7v3a1 1 0 0 1-2 0V3H2a1 1 0 0 0-1 1v5h30V4a1 1 0 0 0-1-1zM7 2a1 1 0 0 0-2 0v1h2zm20 0a1 1 0 0 0-2 0v1h2z"/></svg>