<svg xmlns="http://www.w3.org/2000/svg" enable-background="new 0 0 67 67" viewBox="0 0 67 67"><circle cx="33.392" cy="17.771" r="4.032" fill="#8F9FFF"/><path fill="#FFF" d="M55.39143,54.14601l-7.5826-21.75406c-0.28279-0.8113-1.04791-1.35488-1.90708-1.35488H22.27041
		c-0.85917,0-1.62429,0.54358-1.90708,1.35488l-7.5826,21.75406c-0.45754,1.31266,0.51697,2.68435,1.90708,2.68435h38.79654
		C54.87446,56.83036,55.84897,55.45867,55.39143,54.14601z"/><path fill="#FFF" d="M55.39143,54.14601l-7.5826-21.75406c-0.28279-0.8113-1.04791-1.35488-1.90708-1.35488H22.27041
		c-0.85917,0-1.62429,0.54358-1.90708,1.35488l-7.5826,21.75406c-0.45754,1.31266,0.51697,2.68435,1.90708,2.68435h38.79654
		C54.87446,56.83036,55.84897,55.45867,55.39143,54.14601z"/><rect width="7.528" height="8.081" x="30.322" y="56.83" fill="#8F9FFF"/><path fill="#2A44E2" d="M44.43299 4.37343c1.50684.56738 2.98438 1.26465 4.39209 2.07129.23795.13682.54448.05576.68213-.18457.1377-.24023.05469-.54492-.18506-.68262-1.45361-.83398-2.97998-1.55371-4.53662-2.13965-.25977-.09961-.54688.03223-.64404.29199C44.04383 3.98769 44.17469 4.27675 44.43299 4.37343zM53.15955 8.15859c-.21924-.17383-.53223-.13281-.70215.08594-.16992.2168-.13135.53125.08594.70117 7.11182 5.56055 11.5791 13.81836 12.25634 22.65625.02002.2627.23926.46191.49805.46191.0127 0 .02588 0 .03857-.00098.27539-.02148.48145-.26172.46045-.53711C65.09802 22.40859 60.49207 13.89101 53.15955 8.15859zM2.64246 29.01113c.04688-.27148-.13525-.53027-.40723-.57813-.27051-.04492-.53076.13672-.57812.4082-1.4082 8.13867.48486 16.59375 5.19434 23.19824.09766.13672.25146.20996.40771.20996.10059 0 .20166-.03027.29004-.09277.22461-.16016.27686-.47266.1167-.69727C3.11023 45.0707 1.27967 36.88906 2.64246 29.01113zM11.30066 11.87734c4.97461-5.19336 11.54102-8.49414 18.48975-9.29395.27441-.03223.47119-.28027.43945-.55469-.03125-.27441-.27637-.45801-.55371-.43945C22.49646 2.4164 15.71424 5.8246 10.57898 11.18593c-.19141.19922-.18457.51563.01514.70703C10.79262 12.08344 11.10936 12.0772 11.30066 11.87734z"/><path fill="#2A44E2" d="M33.39814,5.37465c-15.71997,0-28.50995,12.78003-28.50995,28.48999
		c0,7.48999,2.90997,14.32007,7.66998,19.40991c-0.05718,0.33164-0.89327,1.62144,0.08002,3
		c0.46997,0.67004,1.21997,1.06006,2.04999,1.06006h2.57001c3.65997,2.53003,7.94,4.21997,12.56,4.80005v2.27686h-4.96869
		c-0.27637,0-0.5,0.22363-0.5,0.5s0.22363,0.5,0.5,0.5c4.86923,0.00118,13.60387,0.00009,18.47315,0c0.27637,0,0.5-0.22363,0.5-0.5
		s-0.22363-0.5-0.5-0.5h-4.97449V61.9247c4.09003-0.71008,7.89001-2.31006,11.17999-4.59009
		c2.98018-0.21018,4.81525,0.60781,6.01001-1.06006c0.48004-0.67993,0.60004-1.51001,0.33002-2.28992l-0.64001-1.82996
		c4.16003-4.95007,6.66003-11.34009,6.66003-18.29004C61.88819,18.15468,49.10816,5.37465,33.39814,5.37465z M13.44818,55.6946
		c-0.73497-1.03904,0.13778-1.89453,0.88-4.46997h8.96997l-0.90997,5.10999C15.06698,56.13149,14.2473,56.79698,13.44818,55.6946z
		 M44.76819,56.33461c-5.66469,0-4.36477,0-10.18188,0v-5.10999h9.28186L44.76819,56.33461z M23.40814,56.33461l0.90002-5.10999
		h9.27814v5.10999C21.87531,56.33461,33.01842,56.33461,23.40814,56.33461z M25.50885,44.43105h8.07746v5.79358h-9.09815
		l1.02002-5.78992L25.50885,44.43105z M26.7088,37.64101h6.8775v5.79004h-7.89746l1.01929-5.78638L26.7088,37.64101z
		 M41.46747,37.64101l0.00067,0.00366l1.01935,5.78638h-7.90118v-5.79004H41.46747z M42.66816,44.43471l1.02002,5.78992h-9.10187
		v-5.79358h8.08118L42.66816,44.43471z M43.67817,44.43471l-0.00061-0.00366h7.79932l0.00128,0.00366l2.02002,5.78992h-8.79004
		L43.67817,44.43471z M43.50751,43.43105l-1.02936-5.78638l-0.00061-0.00366h6.62933
		c0.04067,0.11659,2.05659,5.89485,2.02002,5.79004H43.50751z M42.3075,36.64101l-0.90936-5.10644h4.5
		c0.65002,0,1.23004,0.41003,1.44,1.02002l1.41876,4.08643H42.3075z M41.28748,36.64101h-6.70117v-5.10644h5.80188
		L41.28748,36.64101z M33.58631,36.64101h-6.69745l0.89929-5.10644h5.79816V36.64101z M25.86884,36.64101h-6.45941l1.42871-4.08643
		c0.21002-0.60998,0.79004-1.02002,1.43005-1.02002h4.50995L25.86884,36.64101z M19.05817,37.64467l0.00128-0.00366h6.63934
		l-0.00061,0.00366l-1.02936,5.78638h-7.61938L19.05817,37.64467z M16.69818,44.43471l0.00128-0.00366h7.79932l-0.00061,0.00366
		l-1.03003,5.78992h-8.78998L16.69818,44.43471z M19.08814,57.33461c3.70229,0,7.01332,0,10.73004,0v3.79004
		C25.92816,60.62465,22.28815,59.29457,19.08814,57.33461z M37.34815,64.41152h-6.52997c0-0.32966,0-7.2413,0-7.07691h6.52997
		C37.34815,57.50596,37.34815,64.65341,37.34815,64.41152z M38.34815,60.90468v-3.57007c0.26707,0,9.87264,0,9.35004,0
		C44.87818,59.06459,41.71814,60.30458,38.34815,60.90468z M54.91816,54.31459c0.34965,0.96672-0.38962,2.02002-1.42999,2.02002
		c-0.22446,0-7.82186,0-7.70001,0l-0.90997-5.10999h8.95996c0.03667,0.10478,0.66868,1.91043,0.63,1.79993L54.91816,54.31459z
		 M54.83814,51.04457l-2.54846-7.27686c-0.00543-0.0155-0.00909-0.03101-0.01593-0.04565
		c-0.12573-0.36179-3.86985-11.13556-3.99561-11.49744c-0.34998-1.01001-1.31-1.69006-2.38-1.69006
		c-8.98121,0-18.79151,0-23.62995,0c-1.07001,0-2.03003,0.68005-2.38,1.69006l-1.64001,4.70007
		c-0.02002,0.03992-0.03003,0.07996-0.04004,0.11987l-2.32996,6.69006c-0.01001,0.02991-0.02002,0.06995-0.03003,0.09998
		c-0.03523,0.10098-2.95597,8.47316-2.91998,8.37c-4.37-4.87-7.03998-11.29993-7.03998-18.33997
		c0-15.16003,12.33996-27.48999,27.50995-27.48999c15.16003,0,27.49005,12.32996,27.49005,27.48999
		C60.88819,40.36464,58.62818,46.33461,54.83814,51.04457z"/><path fill="#2A44E2" d="M37.61756 10.45351c-.23877-.13965-.54492-.05664-.68311.18262l-.80225 1.38965c-.13818.23926-.05615.54492.18311.68262.23688.13831.54407.05737.68311-.18262l.80225-1.38965C37.93885 10.89687 37.85682 10.59121 37.61756 10.45351zM39.13807 15.03164l1.38916-.80273c.23926-.1377.32129-.44336.18311-.68262s-.44531-.32324-.68311-.18262l-1.38916.80273c-.23926.1377-.32129.44336-.18311.68262C38.59418 15.08925 38.90162 15.1697 39.13807 15.03164zM41.34217 17.2709h-1.604c-.27637 0-.5.22363-.5.5s.22363.5.5.5h1.604c.27637 0 .5-.22363.5-.5S41.61853 17.2709 41.34217 17.2709zM40.52723 21.31386l-1.38916-.80273c-.23877-.13965-.54541-.05566-.68311.18262-.13818.23926-.05615.54492.18311.68262l1.38916.80273c.23688.13831.54407.05737.68311-.18262C40.84851 21.75722 40.76648 21.45156 40.52723 21.31386zM36.99842 23.01699c-.13867-.23926-.44482-.32227-.68311-.18262-.23926.1377-.32129.44336-.18311.68262l.80225 1.38965c.13922.24023.44666.32068.68311.18262.23926-.1377.32129-.44336.18311-.68262L36.99842 23.01699zM33.39246 23.6166c-.27637 0-.5.22363-.5.5v1.60449c0 .27637.22363.5.5.5s.5-.22363.5-.5V24.1166C33.89246 23.84023 33.66883 23.6166 33.39246 23.6166zM30.46961 22.83437c-.23975-.13965-.54541-.05664-.68311.18262l-.80225 1.38965c-.13818.23926-.05615.54492.18311.68262.23688.13831.54407.05737.68311-.18262l.80225-1.38965C30.7909 23.27773 30.70886 22.97207 30.46961 22.83437zM27.64685 20.51113l-1.38916.80273c-.23926.1377-.32129.44336-.18311.68262.13922.24023.44666.32068.68311.18262l1.38916-.80273c.23926-.1377.32129-.44336.18311-.68262C28.19129 20.45547 27.88416 20.37148 27.64685 20.51113zM27.54675 17.7709c0-.27637-.22363-.5-.5-.5h-1.604c-.27637 0-.5.22363-.5.5s.22363.5.5.5h1.604C27.32312 18.2709 27.54675 18.04726 27.54675 17.7709zM28.14685 14.1664l-1.38916-.80273c-.23975-.14063-.54443-.05664-.68311.18262-.13818.23926-.05615.54492.18311.68262l1.38916.80273c.23688.13831.54407.05737.68311-.18262C28.46814 14.60976 28.38611 14.3041 28.14685 14.1664zM29.85047 10.63613c-.13867-.23926-.4458-.32227-.68311-.18262-.23926.1377-.32129.44336-.18311.68262l.80225 1.38965c.13922.24023.44666.32068.68311.18262.23926-.1377.32129-.44336.18311-.68262L29.85047 10.63613zM33.39246 9.32168c-.27637 0-.5.22363-.5.5v1.60449c0 .27637.22363.5.5.5s.5-.22363.5-.5V9.82168C33.89246 9.54531 33.66883 9.32168 33.39246 9.32168zM33.38819 13.23464c-2.49005 0-4.53003 2.03992-4.53003 4.53992s2.03998 4.53003 4.53003 4.53003c2.5 0 4.53998-2.03003 4.53998-4.53003S35.88819 13.23464 33.38819 13.23464zM33.38819 21.30459c-1.94 0-3.53003-1.58997-3.53003-3.53003 0-1.94995 1.59003-3.53992 3.53003-3.53992 1.94995 0 3.53998 1.58997 3.53998 3.53992C36.92817 19.71462 35.33814 21.30459 33.38819 21.30459zM51.97156 33.70058l-.56592-1.62305c-.09082-.26074-.37744-.39844-.63672-.30664-.26074.09082-.39844.37597-.30762.63672l.56592 1.62305c.07178.20605.26563.33496.47217.33496.05469 0 .11035-.00879.16455-.02832C51.92469 34.24648 52.06238 33.96132 51.97156 33.70058zM55.05359 42.54238l-2.26758-6.50586c-.09033-.25977-.375-.40039-.63672-.30664-.26074.09082-.39844.37598-.30762.63672l2.26758 6.50586c.07178.20605.26514.33496.47217.33496.05469 0 .10986-.00879.16455-.02832C55.00672 43.08828 55.14441 42.80312 55.05359 42.54238zM16.16101 35.33339c-.26172-.0918-.54541.0459-.63672.30762l-2.67334 7.6709c-.09082.26074.04688.54492.30762.63574.05469.01953.10986.02832.16455.02832.20703 0 .40039-.12891.47217-.33594l2.67334-7.6709C16.55945 35.70839 16.42175 35.42421 16.16101 35.33339zM17.4032 31.7709c-.2583-.09277-.5459.0459-.63672.30664l-.56592 1.62305c-.09082.26074.04688.5459.30762.63672.0542.01953.10986.02832.16455.02832.20654 0 .40039-.12891.47217-.33496l.56592-1.62305C17.80164 32.14687 17.66394 31.86172 17.4032 31.7709z"/></svg>