<svg xmlns="http://www.w3.org/2000/svg" viewBox="0 0 512 512"><path fill="#011839" d="M504.5,423.5H492V241a7.53,7.53,0,0,0-1.74-4.8l-100-120a7.43,7.43,0,0,0-5.66-2.69H354a7.5,7.5,0,0,0,0,15h14.5l-62.5,75H68.51l62.5-75h19a7.5,7.5,0,0,0,0-15H127.5a7.48,7.48,0,0,0-5.76,2.7l-100,120A7.45,7.45,0,0,0,20,241h0V423.5H7.5a7.5,7.5,0,0,0,0,15h497a7.5,7.5,0,0,0,0-15Zm-36-190h-94a7.5,7.5,0,0,0,0,15H477v175H432V351a47.5,47.5,0,0,0-95,0v72.5H292V243.72l92.5-111ZM417,423.5H352V351a32.5,32.5,0,0,1,65,0ZM56,218.5H293.49l-12.5,15H43.51Zm-21,30H277v175H35Z"/><path fill="#011839" d="M236 278.5H76a7.5 7.5 0 00-7.5 7.5V386a7.5 7.5 0 007.5 7.5H236a7.5 7.5 0 007.5-7.5V286A7.5 7.5 0 00236 278.5zm-7.5 15v55H83.5v-55zm-145 85v-15h145v15zM397 371v20a7.5 7.5 0 0015 0V371a7.5 7.5 0 00-15 0z"/><path fill="#011839" d="M106 323.5h8a7.5 7.5 0 000-15h-8a7.5 7.5 0 000 15zM136 323.5h8a7.5 7.5 0 000-15h-8a7.5 7.5 0 000 15zM344.5 233.5h-10a7.5 7.5 0 000 15h10a7.5 7.5 0 000-15zM403.73 198.57A7.5 7.5 0 10415.27 189L397.78 167.9a7.5 7.5 0 00-11.55 9.58z"/><polygon fill="#7738c8" points="279.55 108.5 309.65 73.5 275.46 73.5 245.36 108.5 279.55 108.5"/><path fill="#7738c8" d="M343.6,108.5l18.26-22.81A7.5,7.5,0,0,0,356,73.5H329.44l-30.11,35Z"/><polygon fill="#7738c8" points="266.64 123.5 232.45 123.5 202.34 158.5 236.54 158.5 266.64 123.5"/><path fill="#7738c8" d="M305.83 155.69l25.76-32.19H286.43l-30.11 35H300A7.5 7.5 0 00305.83 155.69zM255.68 73.5H212a7.5 7.5 0 00-5.85 2.81L180.41 108.5h45.16zM149.24 154.25A7.5 7.5 0 00156 158.5h26.56l30.11-35H168.4l-18.26 22.81A7.51 7.51 0 00149.24 154.25zM195 178.53a7.47 7.47 0 00-2.2 5.3v9.67h15v-6.56l13.44-13.44H200.06z"/></svg>