<svg xmlns="http://www.w3.org/2000/svg" viewBox="0 0 32 32"><path fill="#011839" d="M14.5 19h-2.4l1.15-1a5.47 5.47 0 0 0 1.62-2.68 3.43 3.43 0 0 0-1-3.4A3.35 3.35 0 0 0 10 11.4L9 12a1 1 0 1 0 1 1.75l1-.54a1.35 1.35 0 0 1 1.54.19 1.44 1.44 0 0 1 .41 1.43 3.44 3.44 0 0 1-1 1.69l-3.12 2.74A1 1 0 0 0 9.5 21h5a1 1 0 0 0 0-2zm8-2.59H22V12a1 1 0 0 0-1-1h-.8a1 1 0 0 0-.84.45l-3.22 4.89a1.1 1.1 0 0 0-.16.55v.52a1 1 0 0 0 1 1h3V20a1 1 0 0 0 2 0v-1.59h.48a1 1 0 0 0 0-2zm-2.48 0h-1.5L20 14.12z"/><path fill="#7738c8" d="M22.14 6.55a1 1 0 0 0 1.1.89l2.82-.29a1 1 0 0 0 .94-1.1l-.3-2.81a1 1 0 1 0-2 .21l.19 1.81-1.89.19a1 1 0 0 0-.86 1.1zM3 16A13 13 0 0 1 21.26 4.12a2.89 2.89 0 0 1 1.4-.63 2.59 2.59 0 0 1 .1-.88A15 15 0 0 0 1 16a14.82 14.82 0 0 0 1.26 6 1 1 0 0 0 .92.6 1 1 0 0 0 .4-.09 1 1 0 0 0 .51-1.31A13 13 0 0 1 3 16zm6.86 9.45a1 1 0 0 0-1.1-.89l-2.82.29A1 1 0 0 0 5.05 26l.3 2.81a1 1 0 0 0 2-.21l-.19-1.81L9 26.55a1 1 0 0 0 .86-1.1zM29.74 10a1 1 0 0 0-.92-.6 1 1 0 0 0-.4.09 1 1 0 0 0-.51 1.31 13 13 0 0 1-17.17 17.08 2.89 2.89 0 0 1-1.4.63 2.59 2.59 0 0 1-.1.88A15 15 0 0 0 31 16a14.82 14.82 0 0 0-1.26-6z"/></svg>