<svg xmlns="http://www.w3.org/2000/svg" viewBox="0 0 32 32"><path fill="#011839" d="M26 4h-3V2a1 1 0 0 0-2 0v2H7V2a1 1 0 0 0-2 0v2H2a1 1 0 0 0-1 1v21a1 1 0 0 0 1 1h24a1 1 0 0 0 1-1V5a1 1 0 0 0-1-1ZM5 6v1a1 1 0 0 0 2 0V6h14v1a1 1 0 0 0 2 0V6h2v4H3V6ZM3 25V12h22v13Z"/><path fill="#011839" d="M7 14.5H6a1 1 0 0 0 0 2h1a1 1 0 0 0 0-2zm5 0h-1a1 1 0 0 0 0 2h1a1 1 0 0 0 0-2zm5 0h-1a1 1 0 0 0 0 2h1a1 1 0 0 0 0-2zm5 0h-1a1 1 0 0 0 0 2h1a1 1 0 0 0 0-2zm-15 6H6a1 1 0 0 0 0 2h1a1 1 0 0 0 0-2zm5 0h-1a1 1 0 0 0 0 2h1a1 1 0 0 0 0-2zm5 0h-1a1 1 0 0 0 0 2h1a1 1 0 0 0 0-2zm5 0h-1a1 1 0 0 0 0 2h1a1 1 0 0 0 0-2z"/><path fill="#7738c8" d="M30 8h-1v6h2V9a1 1 0 0 0-1-1zm-1 20a1 1 0 0 1-1 1H5v1a1 1 0 0 0 1 1h24a1 1 0 0 0 1-1V16h-2z"/></svg>