<svg xmlns="http://www.w3.org/2000/svg" xmlns:xlink="http://www.w3.org/1999/xlink" viewBox="0 0 64 64"><defs><linearGradient id="a" x1="14.228" x2="74.471" y1="-7.545" y2="52.698" gradientUnits="userSpaceOnUse"><stop offset="0" stop-color="#ff35d8"/><stop offset=".061" stop-color="#ea34d4"/><stop offset=".247" stop-color="#b133ca"/><stop offset=".427" stop-color="#8131c2"/><stop offset=".597" stop-color="#5c30bb"/><stop offset=".753" stop-color="#4130b7"/><stop offset=".893" stop-color="#312fb4"/><stop offset="1" stop-color="#2b2fb3"/></linearGradient><linearGradient id="b" x1="9.145" x2="69.389" y1="-2.462" y2="57.781" xlink:href="#a"/><linearGradient id="c" x1="14.717" x2="74.96" y1="-8.034" y2="52.209" xlink:href="#a"/><linearGradient id="d" x1="19.859" x2="80.102" y1="-13.176" y2="47.068" xlink:href="#a"/><linearGradient id="e" x1="-2.159" x2="58.085" y1="8.841" y2="69.085" xlink:href="#a"/><linearGradient id="f" x1="10.031" x2="70.274" y1="-3.348" y2="56.895" xlink:href="#a"/><linearGradient id="g" x1="9.341" x2="69.585" y1="-2.659" y2="57.585" xlink:href="#a"/><linearGradient id="h" x1="-1.159" x2="59.085" y1="7.841" y2="68.085" xlink:href="#a"/><linearGradient id="i" x1="-1.012" x2="59.231" y1="7.695" y2="67.938" xlink:href="#a"/></defs><path fill="url(#a)" d="M15.35,17.75A11.281,11.281,0,0,1,15.064,16H17V14H15.051a10.9,10.9,0,0,1,.971-3.606l1.684.972,1-1.732-1.684-.972a11.068,11.068,0,0,1,2.64-2.64l.972,1.684,1.732-1-.972-1.684A10.9,10.9,0,0,1,25,4.051V6h2V4.055a10.932,10.932,0,0,1,3.611.958l-.977,1.693,1.732,1,.972-1.683a11.19,11.19,0,0,1,1.9,1.687c.211-.312.438-.611.675-.9A12.939,12.939,0,0,0,32,15.08a13.088,13.088,0,0,0,.482,3.441l1.926-.539A11,11,0,1,1,56,14.933a10.88,10.88,0,0,1-1.106,4.88l1.8.876A12.875,12.875,0,0,0,58,14.92,13.016,13.016,0,0,0,45,2h-.079a12.978,12.978,0,0,0-9.964,4.758c.176-.214.354-.427.543-.628A13,13,0,0,0,13.41,18.24Z"/><path fill="url(#b)" d="M25,14.18l-4.2.84.392,1.96,5-1A1,1,0,0,0,27,15V8H25Z"/><path fill="url(#c)" d="M40,16a1,1,0,0,0-1,1,5.47,5.47,0,0,0,.09,1h2.04A3.657,3.657,0,0,1,41,17,1,1,0,0,0,40,16Z"/><path fill="url(#d)" d="M49,13a1,1,0,0,0,2,0,5.99,5.99,0,0,0-5-5.91V6a1,1,0,0,0-2,0V7.09A5.99,5.99,0,0,0,39,13a1,1,0,0,0,.63.93L44,15.68V18h2V16.48l2.95,1.18a2.092,2.092,0,0,1-.08.34h2.04A5.47,5.47,0,0,0,51,17a1,1,0,0,0-.63-.93L46,14.32V9.13A3.992,3.992,0,0,1,49,13Zm-7.95-.66A4.007,4.007,0,0,1,44,9.13v4.39Z"/><path fill="url(#e)" d="M54,56a4,4,0,0,1-4,4H14V24H12V60H10a4,4,0,0,1-4-4V20.468c.017.015.037.026.054.041a6.116,6.116,0,0,0,.748.559l.127.077a6.028,6.028,0,0,0,.847.423l.125.046a5.928,5.928,0,0,0,.948.273l.091.013A5.97,5.97,0,0,0,10,22H50a4,4,0,0,1,4,4v6h2V26a6.006,6.006,0,0,0-6-6H10a4,4,0,1,1,0-8h2V10H10a5.985,5.985,0,0,0-6,6V56a6.006,6.006,0,0,0,6,6H50a6.006,6.006,0,0,0,6-6V48H54Z"/><path fill="url(#f)" d="M57,34H51a6,6,0,0,0,0,12h6a3,3,0,0,0,3-3V37A3,3,0,0,0,57,34Zm1,9a1,1,0,0,1-1,1H51a4,4,0,0,1,0-8h6a1,1,0,0,1,1,1Z"/><rect width="4" height="2" x="50" y="39" fill="url(#g)"/><path fill="url(#h)" d="M21,41A11,11,0,1,0,32,30,11.013,11.013,0,0,0,21,41Zm20,0a9,9,0,1,1-9-9A9.01,9.01,0,0,1,41,41Z"/><path fill="url(#i)" d="M26.707,42.293l-1.414,1.414,3,3a1,1,0,0,0,1.414,0l9-9-1.414-1.414L29,44.586Z"/></svg>