<svg xmlns="http://www.w3.org/2000/svg" viewBox="0 0 32 32"><path fill="#011839" d="M30 11a1 1 0 0 0-1 1v17H3V12a1 1 0 0 0-2 0v18a1 1 0 0 0 1 1h28a1 1 0 0 0 1-1V12a1 1 0 0 0-1-1Z"/><path fill="#011839" d="M13 25H8a1 1 0 0 0 0 2h5a3 3 0 0 0 3-3v-2a3 3 0 0 0-.78-2 3 3 0 0 0 .78-2v-2a3 3 0 0 0-3-3H8a1 1 0 0 0 0 2h5a1 1 0 0 1 1 1v2a1 1 0 0 1-1 1H8a1 1 0 0 0 0 2h5a1 1 0 0 1 1 1v2a1 1 0 0 1-1 1zm6.37-9.07 1.13-.45V25H19a1 1 0 0 0 0 2h5a1 1 0 0 0 0-2h-1.5V14a1 1 0 0 0-.44-.83 1 1 0 0 0-.93-.1l-2.5 1a1 1 0 0 0 .74 1.86z"/><path fill="#7738c8" d="M30 3h-3v3a1 1 0 0 1-2 0V3H7v3a1 1 0 0 1-2 0V3H2a1 1 0 0 0-1 1v5h30V4a1 1 0 0 0-1-1zM7 2a1 1 0 0 0-2 0v1h2zm20 0a1 1 0 0 0-2 0v1h2z"/></svg>