<svg xmlns="http://www.w3.org/2000/svg" viewBox="0 0 512 512"><path fill="#011839" d="M504.5,393.5h-11V151A27.54,27.54,0,0,0,466,123.5H413.5V101A27.54,27.54,0,0,0,386,73.5H126A27.54,27.54,0,0,0,98.5,101v22.5H46A27.54,27.54,0,0,0,18.5,151V393.5H7.5A7.5,7.5,0,0,0,0,401v10a27.54,27.54,0,0,0,27.5,27.5h457A27.54,27.54,0,0,0,512,411V401A7.5,7.5,0,0,0,504.5,393.5ZM113.5,101A12.52,12.52,0,0,1,126,88.5H386A12.52,12.52,0,0,1,398.5,101V281A12.52,12.52,0,0,1,386,293.5H126A12.52,12.52,0,0,1,113.5,281Zm-80,50A12.52,12.52,0,0,1,46,138.5H98.5V281A27.54,27.54,0,0,0,126,308.5H386A27.54,27.54,0,0,0,413.5,281V138.5H466A12.52,12.52,0,0,1,478.5,151V393.5H33.5ZM497,411a12.52,12.52,0,0,1-12.5,12.5H27.5A12.52,12.52,0,0,1,15,411v-2.5H497Z"/><path fill="#011839" d="M321,333.5H191a22.5,22.5,0,0,0,0,45H321a22.5,22.5,0,0,0,0-45Zm0,30H191a7.5,7.5,0,0,1,0-15H321a7.5,7.5,0,0,1,0,15Z"/><path fill="#7738c8" d="M326,257H278.5V235h-15v22h-15V235h-15v22H186a7.5,7.5,0,0,0,0,15H326a7.5,7.5,0,0,0,0-15Z"/><polygon fill="#7738c8" points="286.05 165 225.95 165 222.44 190 289.56 190 286.05 165"/><polygon fill="#7738c8" points="304.71 190 351.71 190 344.79 165 301.2 165 304.71 190"/><polygon fill="#7738c8" points="210.8 165 167.21 165 160.29 190 207.29 190 210.8 165"/><path fill="#7738c8" d="M218.53,110h-30.4a7.5,7.5,0,0,0-7.23,5.5L171.36,150h41.55Z"/><polygon fill="#7738c8" points="278.33 110 233.67 110 228.05 150 283.95 150 278.33 110"/><path fill="#7738c8" d="M340.64,150l-9.54-34.5a7.5,7.5,0,0,0-7.23-5.5h-30.4l5.62,40Z"/><rect width="195" height="15" x="158.5" y="205" fill="#7738c8"/></svg>