<svg xmlns="http://www.w3.org/2000/svg" viewBox="0 0 512 512"><path fill="#011839" d="M511.75,432.6h0l-26.16-100a7.5,7.5,0,0,0-7.26-5.6H270.66a7.5,7.5,0,0,0-7.26,5.6l-26.16,100h0a7.44,7.44,0,0,0-.25,1.9V442H197.5A27.53,27.53,0,0,0,170,469.5v15a12.5,12.5,0,0,1-25,0V405h17.5A22.52,22.52,0,0,0,185,382.5V365h22.5a7.5,7.5,0,0,0,7.5-7.5V325h17.5a22.5,22.5,0,0,0,0-45H42.5a22.5,22.5,0,0,0,0,45H60v32.5a7.5,7.5,0,0,0,7.5,7.5H90v17.5A22.52,22.52,0,0,0,112.5,405H130v79.5a27.5,27.5,0,0,0,55,0v-15A12.52,12.52,0,0,1,197.5,457H237v7.5a7.5,7.5,0,0,0,7.5,7.5H317v25H284.5a7.5,7.5,0,0,0,0,15h180a7.5,7.5,0,0,0,0-15H432V472h72.5a7.5,7.5,0,0,0,7.5-7.5v-30A7.44,7.44,0,0,0,511.75,432.6ZM35,302.5a7.5,7.5,0,0,1,7.5-7.5h190a7.5,7.5,0,0,1,0,15H42.5A7.5,7.5,0,0,1,35,302.5ZM75,325H200v25H75Zm30,57.5V365h65v17.5a7.5,7.5,0,0,1-7.5,7.5h-50A7.5,7.5,0,0,1,105,382.5ZM263.37,392H308l-7.32,35H254.21Zm60,0H425.63L433,427H316.05Zm3.14-15,7.32-35h81.34l7.32,35Zm121.77,50L441,392h44.67l9.16,35Zm33.43-50H437.82l-7.33-35h42.06ZM276.45,342h42.06l-7.33,35H267.29ZM417,497H332V472h85Zm80-40H252V442H497Z"/><path fill="#7738c8" d="M147.84,132.4a7.5,7.5,0,0,1-1.21-6.6L161.41,75H120.2l-18,70.15h19.61a7.51,7.51,0,0,1,7.49,7.11l2.17,41.52,37.36-58.39h-15A7.51,7.51,0,0,1,147.84,132.4Z"/><rect width="45" height="15" x="115" y="255" fill="#7738c8"/><path fill="#7738c8" d="M137.5,0C61.68,0,0,61.68,0,137.5A136.71,136.71,0,0,0,50,243.57V270h50V247.5a7.5,7.5,0,0,1,7.5-7.5h60a7.5,7.5,0,0,1,7.5,7.5V270h50V243.57A136.71,136.71,0,0,0,275,137.5C275,61.68,213.32,0,137.5,0Zm51.32,131.94-57.33,89.6a7.5,7.5,0,0,1-13.81-3.65l-3-57.74H92.5a7.48,7.48,0,0,1-7.26-9.36l21.88-85.16A7.5,7.5,0,0,1,114.38,60h57a7.51,7.51,0,0,1,7.21,9.59l-14.78,50.8H182.5a7.51,7.51,0,0,1,6.32,11.55Z"/></svg>