<svg xmlns="http://www.w3.org/2000/svg" viewBox="0 0 512 512"><path fill="#011839" d="M504.5,225a7.5,7.5,0,0,0,7.5-7.5v-50a7.43,7.43,0,0,0-.35-2.27l-50-160A7.5,7.5,0,0,0,454.5,0H57.5a7.5,7.5,0,0,0-7.16,5.26l-50,160A7.43,7.43,0,0,0,0,167.5v50A7.5,7.5,0,0,0,7.5,225h161v32H37.5A37.54,37.54,0,0,0,0,294.5v180A37.54,37.54,0,0,0,37.5,512h397A37.54,37.54,0,0,0,472,474.5V442h32.5a7.5,7.5,0,0,0,7.5-7.5v-100a7.5,7.5,0,0,0-7.5-7.5H472V294.5A37.54,37.54,0,0,0,434.5,257h-91V225ZM497,342v85H472V342ZM17.7,160,38,95h79.88l-16.25,65ZM133.36,95H378.64l16.25,65H117.11Zm3.75-15,16.25-65H358.64l16.25,65Zm273.25,80L394.11,95H474l20.31,65ZM469.3,80H390.36L374.11,15H449ZM63,15h74.88L121.64,80H42.7ZM15,175H497v35H15ZM457,294.5v180A22.52,22.52,0,0,1,434.5,497H37.5A22.52,22.52,0,0,1,15,474.5v-180A22.52,22.52,0,0,1,37.5,272h397A22.52,22.52,0,0,1,457,294.5ZM328.5,257h-145V225h145Z"/><path fill="#011839" d="M47.5 185h-10a7.5 7.5 0 000 15h10a7.5 7.5 0 000-15zM87.5 185h-10a7.5 7.5 0 000 15h10a7.5 7.5 0 000-15z"/><path fill="#7738c8" d="M320.89,379.26a7.5,7.5,0,0,1-1.2-6.59L328.61,342h-22.2l-10.74,41.77h9.85a7.5,7.5,0,0,1,7.49,7.11l1,19.9,18.25-28.52h-5.41A7.5,7.5,0,0,1,320.89,379.26Z"/><rect width="65" height="175" x="135" y="297" fill="#7738c8"/><path fill="#7738c8" d="M120 297H62.5A22.52 22.52 0 0040 319.5v130A22.52 22.52 0 0062.5 472H120zM409.5 297H215V472H409.5A22.52 22.52 0 00432 449.5v-130A22.52 22.52 0 00409.5 297zM307.78 442a7.5 7.5 0 01-7.49-7.11l-1.89-36.12H286a7.5 7.5 0 01-7.26-9.37l14.58-56.77a7.52 7.52 0 017.27-5.63h38a7.5 7.5 0 017.2 9.59l-8.92 30.67H346a7.5 7.5 0 016.32 11.54L314.1 438.54A7.51 7.51 0 01307.78 442zm56.72 0h-5a7.5 7.5 0 010-15h5a7.5 7.5 0 010 15zm30 0h-5a7.5 7.5 0 010-15h5a7.5 7.5 0 010 15z"/></svg>