<svg xmlns="http://www.w3.org/2000/svg" viewBox="0 0 512 512"><path fill="#011839" d="M123.5,434.5A27.54,27.54,0,0,0,151,462H251a27.5,27.5,0,0,0,0-55H151A27.54,27.54,0,0,0,123.5,434.5Zm140,0A12.52,12.52,0,0,1,251,447H151a12.5,12.5,0,0,1,0-25H251A12.52,12.52,0,0,1,263.5,434.5Z"/><path fill="#011839" d="M411,100.16H328.5V27.5A27.54,27.54,0,0,0,301,0H101A27.54,27.54,0,0,0,73.5,27.5v457A27.54,27.54,0,0,0,101,512H301a27.54,27.54,0,0,0,27.5-27.5V375.16H411a27.54,27.54,0,0,0,27.5-27.5v-220A27.54,27.54,0,0,0,411,100.16ZM158.5,15h85V27.5A12.52,12.52,0,0,1,231,40H171a12.52,12.52,0,0,1-12.5-12.5Zm155,469.5A12.52,12.52,0,0,1,301,497H101a12.52,12.52,0,0,1-12.5-12.5V27.5A12.52,12.52,0,0,1,101,15h42.5V27.5A27.54,27.54,0,0,0,171,55h60a27.54,27.54,0,0,0,27.5-27.5V15H301a12.52,12.52,0,0,1,12.5,12.5v72.66H191a27.54,27.54,0,0,0-27.5,27.5v220a27.54,27.54,0,0,0,27.5,27.5H313.5Zm110-136.84a12.52,12.52,0,0,1-12.5,12.5H191a12.52,12.52,0,0,1-12.5-12.5v-220a12.52,12.52,0,0,1,12.5-12.5H411a12.52,12.52,0,0,1,12.5,12.5Z"/><path fill="#7738c8" d="M371,303.66H323.5v-22h-15v22h-15v-22h-15v22H231a7.5,7.5,0,0,0,0,15H371a7.5,7.5,0,0,0,0-15Z"/><polygon fill="#7738c8" points="331.05 211.66 270.95 211.66 267.44 236.66 334.56 236.66 331.05 211.66"/><polygon fill="#7738c8" points="349.71 236.66 396.71 236.66 389.79 211.66 346.2 211.66 349.71 236.66"/><polygon fill="#7738c8" points="255.8 211.66 212.21 211.66 205.29 236.66 252.29 236.66 255.8 211.66"/><path fill="#7738c8" d="M263.53,156.66h-30.4a7.5,7.5,0,0,0-7.23,5.5l-9.54,34.5h41.55Z"/><polygon fill="#7738c8" points="323.33 156.66 278.67 156.66 273.05 196.66 328.95 196.66 323.33 156.66"/><path fill="#7738c8" d="M385.64,196.66l-9.54-34.5a7.5,7.5,0,0,0-7.23-5.5h-30.4l5.62,40Z"/><rect width="195" height="15" x="203.5" y="251.66" fill="#7738c8"/></svg>