<svg xmlns="http://www.w3.org/2000/svg" viewBox="0 0 512 512"><path fill="#011839" d="M511.65,372.23l-50-160A7.5,7.5,0,0,0,454.5,207H57.5a7.5,7.5,0,0,0-7.16,5.26l-50,160A7.43,7.43,0,0,0,0,374.5v50A7.5,7.5,0,0,0,7.5,432h131v35H96a22.5,22.5,0,0,0,0,45H416a22.5,22.5,0,0,0,0-45H373.5V432h131a7.5,7.5,0,0,0,7.5-7.5v-50A7.43,7.43,0,0,0,511.65,372.23ZM17.7,367,38,302h79.88l-16.25,65Zm115.66-65H378.64l16.25,65H117.11Zm3.75-15,16.25-65H358.64l16.25,65Zm273.25,80-16.25-65H474l20.31,65Zm58.94-80H390.36l-16.25-65H449ZM63,222h74.88l-16.25,65H42.7ZM153.5,432h25v35h-25Zm40,35V432h125v35Zm230,22.5A7.5,7.5,0,0,1,416,497H96a7.5,7.5,0,0,1,0-15H416A7.5,7.5,0,0,1,423.5,489.5Zm-65-22.5h-25V432h25ZM497,417H15V382H497Z"/><path fill="#011839" d="M37.5 407h10a7.5 7.5 0 000-15h-10a7.5 7.5 0 000 15zM77.5 407h10a7.5 7.5 0 000-15h-10a7.5 7.5 0 000 15z"/><path fill="#7738c8" d="M256 103.5a7.5 7.5 0 007.5-7.5V47.5a7.5 7.5 0 00-15 0V96A7.5 7.5 0 00256 103.5zM256 25a7.5 7.5 0 007.5-7.5V7.5a7.5 7.5 0 00-15 0v10A7.5 7.5 0 00256 25zM411.77 151.32L366.2 167.91a7.5 7.5 0 002.56 14.55 7.69 7.69 0 002.57-.45l45.57-16.59a7.5 7.5 0 10-5.13-14.1zM459 142.12a7.49 7.49 0 00-9.61-4.48l-9.4 3.42a7.5 7.5 0 002.57 14.55 7.63 7.63 0 002.56-.45l9.4-3.42A7.5 7.5 0 00459 142.12zM357 71.83a7.51 7.51 0 00-10.45 1.84L318.69 113.4A7.5 7.5 0 10331 122l27.82-39.73A7.49 7.49 0 00357 71.83zM365.55 59.54A7.5 7.5 0 00376 57.7l5.73-8.19a7.5 7.5 0 10-12.28-8.6l-5.74 8.19A7.5 7.5 0 00365.55 59.54zM145.8 167.91l-45.57-16.59a7.5 7.5 0 10-5.13 14.1L140.67 182a7.69 7.69 0 002.57.45 7.5 7.5 0 002.56-14.55zM72 141.06l-9.4-3.42a7.5 7.5 0 00-5.13 14.1l9.4 3.42a7.63 7.63 0 002.56.45A7.5 7.5 0 0072 141.06zM187.18 125.2a7.49 7.49 0 006.13-11.8L165.5 73.67a7.5 7.5 0 00-12.29 8.6L181 122A7.47 7.47 0 00187.18 125.2zM136 57.7a7.5 7.5 0 0012.29-8.6l-5.74-8.19a7.5 7.5 0 10-12.28 8.6zM350.5 192a97.5 97.5 0 00-189 0zM201 154.26a67.07 67.07 0 0147.52-19.6 7.5 7.5 0 010 15 52.15 52.15 0 00-36.95 15.24A7.5 7.5 0 11201 154.26z"/></svg>