<svg xmlns="http://www.w3.org/2000/svg" viewBox="0 0 1364 960"><path fill="#B8ECFF" d="M1230.247 627.141c0 27.05-1.958 53.637-5.729 79.628-6.687 45.891-19.044 89.926-36.362 131.394a546.67 546.67 0 0 1-27.471 56.451 550.58 550.58 0 0 1-12.706 21.51H216.021a522.08 522.08 0 0 1-8.079-13.445 374.772 374.772 0 0 1-4.627-8.064c-22.989-41.062-40.858-85.387-52.723-132.09a547.37 547.37 0 0 1-15.259-93.422 558.302 558.302 0 0 1-1.581-41.961C133.753 324.35 379.209 78.895 682 78.895c298.947 0 542.01 239.262 548.116 536.745.087 3.829.131 7.658.131 11.501z"/><path fill="#4D4D4D" d="M1230.247 627.141c0 27.05-1.958 53.637-5.729 79.628-6.687 45.891-19.044 89.926-36.362 131.394-326.738 21.495-653.475 43.005-980.213 64.515a374.772 374.772 0 0 1-4.627-8.064c-22.989-41.062-40.858-85.387-52.723-132.09a547.37 547.37 0 0 1-15.259-93.422c4.308-1.001 8.819-1.871 12.242-2.132 2.35-.188 4.714-.29 7.122-.29 2.582 0 5.134.13 7.644.348 2.785-47.284 52.592-84.966 113.626-84.966 61.295 0 111.233 37.972 113.641 85.517 4.003-.551 8.108-.899 12.3-.899 4.003 0 7.919.276 11.734.769 9.239 1.218 17.869 3.858 25.557 7.586 7.861-14.272 22.192-25.847 40.09-32.446 10.487-3.873 22.206-6.034 34.578-6.034 19.247 0 36.899 5.265 50.837 14.026a109.623 109.623 0 0 1-.899-14.026c0-77.279 79.962-139.923 178.62-139.923s178.62 62.644 178.62 139.923c0 8.775-1.073 17.347-3.046 25.673 14.823-15.549 38.451-25.673 65.124-25.673 19.9 0 38.103 5.613 52.23 14.91 13.126-37.856 57.292-65.719 109.768-65.719 33.809 0 64.152 11.545 84.995 29.893.086 3.83.13 7.659.13 11.502z"/><path fill="#FFF" d="M1224.518 706.77c-6.687 45.891-19.044 89.926-36.362 131.394a546.67 546.67 0 0 1-27.471 56.451 550.58 550.58 0 0 1-12.706 21.51H216.021a522.08 522.08 0 0 1-8.079-13.445 374.772 374.772 0 0 1-4.627-8.064c-22.989-41.062-40.858-85.387-52.723-132.09a76.282 76.282 0 0 1 4.105-.101c2.582 0 5.134.116 7.644.334.595-10.138 3.351-19.842 7.934-28.82a68.78 68.78 0 0 1 2.205-4.047c17.942-30.735 57.524-52.099 103.488-52.099 61.295 0 111.233 37.972 113.641 85.517 4.003-.551 8.108-.885 12.3-.885 4.003 0 7.919.261 11.734.754 9.239 1.218 17.869 3.858 25.557 7.586 7.861-14.272 22.192-25.832 40.09-32.446a94.208 94.208 0 0 1 7.484-2.408c8.47-2.35 17.594-3.626 27.094-3.626 19.247 0 36.899 5.265 50.837 14.026a109.623 109.623 0 0 1-.899-14.026c0-77.279 79.962-139.923 178.62-139.923s178.62 62.644 178.62 139.923c0 8.775-1.073 17.347-3.046 25.673a66.443 66.443 0 0 1 5.062-4.801c3.626-3.133 7.644-5.976 11.995-8.485 13.445-7.774 30.067-12.387 48.067-12.387 18.029 0 34.665 4.612 48.154 12.387a87.858 87.858 0 0 1 4.076 2.524c.29-.841.609-1.683.928-2.524 14.171-36.565 57.524-63.195 108.84-63.195 30.893-.003 58.901 9.643 79.396 25.293z"/><path fill="#83C1E6" d="m249.259 289.724-29.148 8.57 29.659 4.642 156.769-3.847 31.646-15.358-32.667-11.063z"/><path fill="#64A5CC" d="m249.259 289.724-29.148 8.57 7.84 1.227 20.198-5.937 156.259-17.058 28.638 9.699 5.139-2.494-32.667-11.063z"/><path fill="#83C1E6" d="m584.78 391.576 20.136 22.751-27.591-11.83-130.752-86.575-18.645-29.827 33.551 7.989z"/><path fill="#64A5CC" d="m584.78 391.576 20.136 22.751-7.293-3.127-13.954-15.764-123.299-97.494-29.414-7.004-3.028-4.843 33.551 7.989z"/><path fill="#83C1E6" d="m506.174 108.778 5.847-29.883-17.205 27.142-67.031 150.396-1.246 33.923 23.963-28.441z"/><path fill="#64A5CC" d="m506.174 108.778 5.847-29.883-4.549 7.175-4.051 20.706-55.672 153.138-21.008 24.933-.202 5.509 23.963-28.441z"/><path fill="#83C1E6" d="M446.772 878.08h-40.466l11.696-587.724h17.074z"/><path fill="#64A5CC" d="m431.2 290.681.966 587.399h14.606l-11.696-587.724h-15.09z"/><path fill="#D3E2F0" d="m406.311 877.839-.005.241h8.314z"/><path fill="#64A5CC" d="M409.477 289.101c0-10.19 8.261-18.45 18.451-18.45 10.189 0 18.45 8.26 18.45 18.45 0 10.189-8.261 18.45-18.45 18.45-10.19.001-18.451-8.26-18.451-18.45z"/><path fill="#FFF" d="M411.494 289.101c0-9.076 7.358-16.434 16.434-16.434s16.434 7.357 16.434 16.434-7.358 16.434-16.434 16.434-16.434-7.357-16.434-16.434z"/><path fill="#64A5CC" d="M414.99 289.101c0-7.146 5.792-12.939 12.938-12.939 7.145 0 12.939 5.793 12.939 12.939 0 7.145-5.793 12.938-12.939 12.938s-12.938-5.792-12.938-12.938z"/><path fill="#83C1E6" d="M455.43 889.316h-57.601l5.628-88.999h46.344z"/><path fill="#64A5CC" d="M449.801 800.317h-7.731l5.629 88.999h7.731z"/><path fill="#83C1E6" d="M392.067 878.08h69.908v16.95h-69.908zM150.874 491.684l-18.831 5.537 19.161 2.999 101.283-2.486 20.445-9.922-21.104-7.148z"/><path fill="#64A5CC" d="m150.874 491.684-18.831 5.537 5.065.792 13.049-3.836 100.953-11.02 18.502 6.266 3.32-1.611-21.104-7.148z"/><path fill="#83C1E6" d="m367.642 557.487 13.009 14.698-17.825-7.643-84.475-55.933-12.045-19.27 21.676 5.161z"/><path fill="#64A5CC" d="m367.642 557.487 13.009 14.698-4.711-2.02-9.016-10.185-79.659-62.987-19.003-4.525-1.956-3.129 21.676 5.161z"/><path fill="#83C1E6" d="m316.857 374.781 3.778-19.306-11.115 17.536-43.306 97.164-.806 21.917 15.482-18.375z"/><path fill="#64A5CC" d="m316.857 374.781 3.778-19.306-2.939 4.635-2.617 13.378-35.967 98.936-13.573 16.109-.131 3.559 15.482-18.375z"/><path fill="#83C1E6" d="M278.48 871.798h-26.144l7.557-379.706h11.031z"/><path fill="#64A5CC" d="m268.42 492.302.624 379.496h9.436l-7.556-379.706h-9.749z"/><path fill="#D3E2F0" d="m252.34 871.643-.004.155h5.372z"/><path fill="#64A5CC" d="M254.385 491.281c0-6.583 5.337-11.92 11.921-11.92 6.583 0 11.92 5.337 11.92 11.92s-5.337 11.92-11.92 11.92c-6.584 0-11.921-5.337-11.921-11.92z"/><path fill="#FFF" d="M255.688 491.281c0-5.864 4.754-10.617 10.617-10.617 5.863 0 10.617 4.753 10.617 10.617s-4.754 10.617-10.617 10.617c-5.863.001-10.617-4.753-10.617-10.617z"/><path fill="#64A5CC" d="M257.947 491.281a8.36 8.36 0 1 1 16.717.001 8.36 8.36 0 0 1-16.717-.001z"/><path fill="#83C1E6" d="M284.074 879.058H246.86l3.636-57.499h29.941z"/><path fill="#64A5CC" d="M280.437 821.559h-4.995l3.637 57.499h4.995z"/><path fill="#83C1E6" d="M243.137 871.798h45.165v10.951h-45.165z"/><path fill="none" d="M1230.247 627.144c0 97.121-25.252 188.352-69.562 267.473a550.58 550.58 0 0 1-12.706 21.51H216.021a550.58 550.58 0 0 1-12.706-21.51c-44.311-79.121-69.562-170.353-69.562-267.473 0-302.791 245.456-548.247 548.247-548.247s548.247 245.456 548.247 548.247z"/><path fill="#AAC96D" d="M156.781 871.231c3.788-6.531 10.79-10.018 17.845-9.657.007-.011.01-.024.017-.035 5.393-9.297 17.301-12.462 26.598-7.069a19.36 19.36 0 0 1 8.57 10.344c5.995-4.089 14.034-4.664 20.731-.78a19.466 19.466 0 0 1 2.407 1.677c2.375-8.087 9.846-13.989 18.7-13.972a19.34 19.34 0 0 1 8.174 1.836c3.046-6.795 9.865-11.529 17.792-11.514 7.157.013 13.386 3.9 16.755 9.662a19.382 19.382 0 0 1 7.553-1.505c.825.001 1.632.073 2.43.174l.001-.003c3.775-6.538 10.771-10.041 17.826-9.695.007-.01.011-.023.018-.035 5.374-9.307 17.276-12.497 26.583-7.123a19.37 19.37 0 0 1 8.591 10.328c5.987-4.101 14.025-4.691 20.729-.821a19.714 19.714 0 0 1 2.41 1.671c2.359-8.091 9.818-14.009 18.672-14.009 2.924 0 5.689.664 8.178 1.82 3.033-6.802 9.841-11.55 17.768-11.55 7.157 0 13.393 3.876 16.775 9.63a19.388 19.388 0 0 1 7.55-1.52c9.758 0 17.814 7.189 19.22 16.555 3.472-3.219 8.105-5.203 13.214-5.203.588 0 1.168.036 1.744.089 3.057-6.742 9.831-11.44 17.717-11.44 7.019 0 13.146 3.728 16.566 9.302-1.02-4.589-.413-9.552 2.123-13.945 3.774-6.537 10.77-10.039 17.825-9.693.008-.011.011-.024.018-.035 5.374-9.308 17.276-12.497 26.583-7.123a19.372 19.372 0 0 1 8.591 10.327c5.986-4.1 14.025-4.692 20.729-.821a19.687 19.687 0 0 1 2.41 1.672c2.359-8.092 9.819-14.009 18.672-14.009 2.925 0 5.688.664 8.177 1.82 3.034-6.802 9.842-11.55 17.769-11.55 7.158 0 13.394 3.874 16.774 9.629a19.414 19.414 0 0 1 7.551-1.52c9.758 0 17.814 7.189 19.221 16.555 3.471-3.219 8.104-5.203 13.213-5.203.589 0 1.168.037 1.744.089 3.057-6.742 9.831-11.44 17.716-11.44 8.248 0 15.281 5.138 18.113 12.383a19.39 19.39 0 0 1 6.212-1.031c7.455 0 13.923 4.196 17.192 10.353 5.635-2.781 12.506-2.79 18.357.587a19.38 19.38 0 0 1 8.591 10.328c5.986-4.101 14.025-4.692 20.729-.821a19.68 19.68 0 0 1 2.41 1.671c2.36-8.091 9.819-14.009 18.672-14.009 2.925 0 5.689.664 8.179 1.82 3.032-6.802 9.84-11.55 17.768-11.55 7.156 0 13.393 3.875 16.774 9.63a19.39 19.39 0 0 1 7.551-1.521c9.758 0 17.813 7.189 19.22 16.555 3.472-3.219 8.105-5.204 13.214-5.204.588 0 1.168.037 1.743.089 3.058-6.742 9.832-11.44 17.717-11.44 8.247 0 15.28 5.139 18.112 12.383a19.417 19.417 0 0 1 6.212-1.031c10.748 0 19.461 8.714 19.461 19.461 0 .18-.022.354-.027.533a19.352 19.352 0 0 1 6.383 2.299 19.37 19.37 0 0 1 8.591 10.328c5.986-4.101 14.025-4.693 20.729-.822.862.499 1.654 1.07 2.41 1.672 2.36-8.092 9.819-14.009 18.672-14.009 2.926 0 5.689.664 8.178 1.82 3.033-6.802 9.841-11.55 17.769-11.55 7.156 0 13.393 3.874 16.774 9.63a19.39 19.39 0 0 1 7.551-1.521c9.758 0 17.814 7.189 19.221 16.555 3.472-3.218 8.105-5.203 13.214-5.203.588 0 1.167.037 1.743.088 3.057-6.741 9.832-11.439 17.717-11.439 8.247 0 15.28 5.139 18.112 12.382a19.44 19.44 0 0 1 6.213-1.03c10.748 0 19.461 8.713 19.461 19.461s-8.713 19.46-19.461 19.46H954.887a19.535 19.535 0 0 1-5.647 0H380.743c-.885.122-1.783.205-2.701.204l-201.622-.402a19.36 19.36 0 0 1-12.57-2.41c-9.296-5.404-12.462-17.312-7.069-26.609z"/><path fill="#769C2C" d="M1173.337 886.133c-3.788-3.221-10.79-4.942-17.844-4.765-.008-.005-.011-.011-.018-.017-5.393-4.585-17.301-6.147-26.598-3.487-4.162 1.191-7.084 3.028-8.57 5.103-5.996-2.017-14.034-2.301-20.731-.385-.861.246-1.652.529-2.407.827-2.374-3.989-9.846-6.901-18.7-6.892-2.924.003-5.687.333-8.174.906-3.047-3.352-9.865-5.688-17.792-5.68-7.156.007-13.386 1.924-16.755 4.766-2.324-.48-4.875-.745-7.553-.743a38.7 38.7 0 0 0-2.43.087l-.002-.002c-3.774-3.225-10.77-4.953-17.825-4.782l-.017-.017c-5.374-4.592-17.276-6.165-26.584-3.515-4.167 1.187-7.096 3.021-8.59 5.095-5.987-2.023-14.025-2.315-20.729-.405-.863.245-1.654.527-2.41.824-2.358-3.992-9.818-6.911-18.672-6.911-2.924 0-5.688.328-8.177.898-3.034-3.355-9.842-5.697-17.769-5.697-7.157 0-13.394 1.91-16.774 4.749-2.323-.483-4.874-.75-7.551-.75-9.758 0-17.814 3.546-19.22 8.167-3.471-1.588-8.105-2.567-13.213-2.567-.59 0-1.169.018-1.745.043-3.057-3.325-9.831-5.642-17.716-5.642-7.018 0-13.148 1.838-16.567 4.588 1.02-2.263.413-4.712-2.123-6.878-3.774-3.225-10.77-4.954-17.825-4.782-.007-.006-.011-.012-.018-.017-5.374-4.592-17.276-6.165-26.583-3.515-4.167 1.187-7.096 3.021-8.591 5.095-5.986-2.024-14.025-2.315-20.728-.406a26.11 26.11 0 0 0-2.411.825c-2.359-3.992-9.819-6.911-18.672-6.911-2.925 0-5.688.328-8.178.898-3.032-3.355-9.841-5.697-17.768-5.697-7.157 0-13.394 1.91-16.774 4.749-2.323-.483-4.874-.75-7.552-.75-9.758 0-17.813 3.546-19.219 8.166-3.473-1.588-8.106-2.566-13.214-2.566-.589 0-1.169.018-1.744.043-3.058-3.325-9.831-5.642-17.716-5.642-8.248 0-15.28 2.535-18.114 6.107a37.895 37.895 0 0 0-6.212-.508c-7.455 0-13.923 2.07-17.192 5.107-5.635-1.371-12.507-1.376-18.357.289-4.166 1.187-7.095 3.022-8.591 5.095-5.987-2.023-14.025-2.314-20.729-.406a26.19 26.19 0 0 0-2.41.825c-2.359-3.992-9.819-6.911-18.672-6.911-2.925 0-5.689.328-8.177.898-3.034-3.355-9.842-5.697-17.769-5.697-7.158 0-13.394 1.91-16.774 4.749a37.361 37.361 0 0 0-7.552-.75c-9.758 0-17.814 3.546-19.22 8.166-3.472-1.588-8.105-2.566-13.213-2.566-.589 0-1.169.018-1.745.043-3.057-3.325-9.831-5.642-17.716-5.642-8.247 0-15.28 2.535-18.113 6.107a37.905 37.905 0 0 0-6.212-.508c-10.748 0-19.461 4.298-19.461 9.6 0 .088.023.174.027.262-2.188.188-4.348.555-6.383 1.135-4.167 1.186-7.096 3.021-8.591 5.094-5.986-2.023-14.025-2.314-20.728-.405a25.41 25.41 0 0 0-2.41.825c-2.36-3.992-9.819-6.911-18.672-6.911-2.924 0-5.689.327-8.179.897-3.032-3.355-9.84-5.697-17.768-5.697-7.156 0-13.393 1.91-16.774 4.749a37.341 37.341 0 0 0-7.55-.75c-9.759 0-17.814 3.546-19.221 8.167-3.472-1.589-8.104-2.567-13.214-2.567-.588 0-1.168.018-1.743.044-3.057-3.326-9.832-5.643-17.717-5.643-8.247 0-15.28 2.535-18.112 6.108a37.802 37.802 0 0 0-6.212-.509c-10.748 0-19.461 4.298-19.461 9.6 0 5.301 8.713 9.6 19.461 9.6h201.622c1.857.135 3.759.133 5.646 0h568.495c.885.059 1.782.1 2.701.099l201.622-.198c4.195.304 8.617-.058 12.57-1.189 9.296-2.657 12.462-8.53 7.069-13.117z"/><path fill="#AAC96D" d="M1247.96 905.372c0 5.94-4.815 10.755-10.755 10.755H126.795c-5.94 0-10.755-4.815-10.755-10.755s4.815-10.755 10.755-10.755h1110.41c5.94 0 10.755 4.815 10.755 10.755z"/><path fill="#FFF" d="M373.558 784.067h25.338v97.199h-25.338z"/><path fill="#FFF" d="M436.972 893.925h-101.49c-.94 0-1.382-1.163-.679-1.787l18.475-16.408c.187-.166.429-.258.679-.258h64.54c.25 0 .492.092.679.258l18.475 16.408c.704.624.262 1.787-.679 1.787zM513.948 784.067h25.338v97.199h-25.338z"/><path fill="#FFF" d="M577.362 893.925h-101.49c-.94 0-1.382-1.163-.679-1.787l18.475-16.408c.187-.166.429-.258.679-.258h64.54c.25 0 .492.092.679.258l18.475 16.408c.703.624.262 1.787-.679 1.787z"/><path fill="#E1E7F7" d="M648.751 820.202H264.093l52.435-190.566h279.788z"/><path fill="#FFF" d="m279.187 807.872 44.268-171.508h265.934l44.268 171.508z"/><path fill="#156E8A" d="m374.76 642.202-3.328 21.256h-47.128l2.563-10.514 2.617-10.742zM370.675 668.282l-2.872 18.293-.812 5.198h-49.59l.994-4.094 1.696-6.922 3.037-12.475zM366.152 697.126l-2.982 19.022-1.103 7.068h-52.326l6.356-26.09zM361.127 729.171l-4.568 29.153h-55.371l3.474-14.253 3.629-14.9zM355.51 764.99l-2.891 18.476-2.243 14.308h-58.8l7.988-32.784zM426.575 642.202l-.875 15.156-.347 6.1h-47.127l3.064-21.256zM425.08 668.282l-1.35 23.491h-49.59l2.946-20.427.447-3.064zM423.429 697.126l-.675 11.736-.82 14.354h-52.326l.228-1.596 3.538-24.494zM421.587 729.171l-.082 1.504-1.587 27.649h-55.371l4.204-29.153zM419.535 764.99l-.319 5.508-1.559 27.276h-58.8l1.185-8.208 2.946-20.436.592-4.14zM479.274 663.458h-47.127l.036-.784.921-20.472h45.277l.848 20.107zM480.469 691.773h-49.59l.949-21.074.109-2.417h47.547l.11 2.636zM481.801 723.216h-52.326l.383-8.527.784-17.563h50.055l.237 5.599.365 8.609zM483.278 758.324h-55.371l.966-21.594.338-7.559h52.836zM484.937 797.774h-58.8l.931-20.828.364-8.016.174-3.94h55.954l.73 17.263zM533.205 663.458h-47.128l-1.167-21.256h45.286zM537.217 691.773h-49.589l-.821-14.928-.465-8.563h47.547zM541.667 723.216h-52.325l-.301-5.526-.474-8.7-.648-11.864h50.055l2.152 15.211 1.332 9.402zM546.637 758.324h-55.371l-1.596-29.153h52.836l3.867 27.311zM552.218 797.774h-58.8l-.456-8.399-1.304-23.919-.027-.466h55.946l.127.894zM587.126 663.458h-47.127l-2.672-17.362-.602-3.894h45.276zM593.956 691.773h-49.589l-3.01-19.506-.611-3.985h47.547zM601.534 723.216h-52.325l-.602-3.921-3.42-22.169h50.055l5.836 24.193zM609.997 758.324h-55.38l-4.487-29.153h52.836zM619.508 797.774h-58.809l-3.739-24.294-1.313-8.49h55.955l1.824 7.551 2.498 10.359v.009z"/><path fill="#E1E7F7" d="M264.093 820.202H648.75v10.695H264.093z"/><path fill="#187E9E" d="M349.829 758.324h-27.813l-17.354-14.253 3.629-14.9h6.046zM330.122 764.99h25.388l-2.891 18.476zM397.85 797.774h-27.813l-9.995-8.208 2.946-20.436zM367.483 663.458h-27.822l-12.794-10.514 2.617-10.742h12.128zM345.534 668.282h25.141l-2.872 18.293zM401.954 691.773H374.14l2.946-20.427zM422.754 708.862l-.82 14.354h-9.521l-31.762-26.09h27.823zM419.663 729.171h1.924l-.082 1.504zM440.236 723.216h-10.761l.383-8.527zM482.977 758.324h-27.823l-26.281-21.594.338-7.559h18.274zM483.56 764.99l.73 17.263-21.02-17.263zM530.998 797.774h-27.813l-10.223-8.399-1.304-23.919zM530.196 642.202l3.009 21.256h-2.563l-25.88-21.256zM558.465 663.458h-18.466l-2.672-17.362zM592.935 691.773h-27.822l-23.756-19.506-.611-3.985h23.592zM601.078 721.319l-29.454-24.193h23.618zM333.497 691.773h-10.114l-4.988-4.094 1.696-6.922zM363.17 716.148l-1.103 7.068h-.402l-31.761-26.09h10.113zM371.778 723.216h-2.17l.228-1.596zM414.52 758.324h-10.122l-35.483-29.153h10.113zM412.514 764.99h7.021l-.319 5.508zM462.541 797.774h-10.113l-25.36-20.828.364-8.016zM407.261 642.202l18.439 15.156-.347 6.1h-2.334l-25.88-21.256zM433.132 663.458h-.985l.036-.784zM467.602 691.773h-10.113l-25.661-21.074.109-2.417h7.068zM480.934 702.725l.365 8.609L464 697.126h10.122zM505.875 723.216h-10.113l-6.721-5.526-.474-8.7zM546.637 758.324h-8.134l-35.491-29.153h10.113l33.248 27.311zM547.577 764.99l.127.894-1.085-.894zM596.637 797.774h-10.113L556.96 773.48l-1.313-8.49h1.085zM479.274 663.458h-8.763l-25.88-21.256h10.113l24.485 20.107zM479.484 668.282l.11 2.636-3.21-2.636zM515.094 691.773h-10.113l-18.174-14.928-.465-8.563h.155zM541.458 721.739l-29.957-24.613h10.114l18.511 15.211zM553.376 723.216h-4.167l-.602-3.921zM596.118 758.324h-10.123l-35.491-29.153h10.122zM615.924 782.9l-21.813-17.91h10.123l9.192 7.551z"/><path fill="#FFF" d="M804.617 758.635h31.362v120.312h-31.362z"/><path fill="#FFF" d="M883.11 894.617H757.487c-1.164 0-1.711-1.439-.84-2.212l22.868-20.309c.232-.206.531-.319.84-.319h79.887c.31 0 .609.114.84.319l22.868 20.309c.871.773.324 2.212-.84 2.212zM978.39 758.635h31.362v120.312H978.39z"/><path fill="#FFF" d="M1056.883 894.617H931.259c-1.164 0-1.711-1.439-.84-2.212l22.868-20.309c.232-.206.531-.319.841-.319h79.887c.31 0 .609.114.84.319l22.868 20.309c.871.773.324 2.212-.84 2.212z"/><path fill="#E1E7F7" d="M1145.247 803.363H669.123l64.903-235.88h346.318z"/><path fill="#FFF" d="M687.806 788.101 742.6 575.812h329.169l54.795 212.289z"/><path fill="#156E8A" d="m806.105 583.037-4.12 26.311h-58.334l3.172-13.015 3.24-13.296zM801.048 615.319l-3.555 22.643-1.005 6.434h-61.381l1.23-5.068 2.099-8.568 3.759-15.441zM795.45 651.022l-3.691 23.545-1.366 8.748h-64.768l7.867-32.293zM789.23 690.686l-5.655 36.086h-68.538l4.301-17.642 4.492-18.444zM782.277 735.023l-3.578 22.869-2.777 17.71H703.14l9.888-40.579zM870.241 583.037l-1.084 18.76-.429 7.551h-58.334l3.793-26.311zM868.39 615.319l-1.671 29.077h-61.381l3.645-25.284.553-3.793zM866.346 651.022l-.835 14.527-1.016 17.766h-64.767l.282-1.975 4.379-30.318zM864.066 690.686l-.101 1.862-1.964 34.224h-68.538l5.204-36.086zM861.527 735.023l-.395 6.818-1.931 33.761H786.42l1.467-10.159 3.646-25.295.734-5.125zM935.471 609.348h-58.334l.045-.971 1.141-25.34h56.042l1.05 24.889zM936.95 644.396h-61.382l1.174-26.086.136-2.991h58.853l.135 3.262zM938.598 683.315H873.83l.474-10.554.971-21.739h61.957l.294 6.93.451 10.655zM940.426 726.772h-68.537l1.196-26.729.418-9.357h65.4zM942.481 775.602h-72.782l1.151-25.781.452-9.922.214-4.876h69.26l.903 21.368zM1002.226 609.348h-58.334l-1.445-26.311h56.054zM1007.192 644.396h-61.381l-1.016-18.478-.576-10.599h58.853zM1012.7 683.315h-64.767l-.373-6.84-.587-10.768-.801-14.685h61.957l2.664 18.827 1.648 11.638zM1018.852 726.772h-68.538l-1.975-36.086h65.4l4.786 33.806zM1025.76 775.602h-72.782l-.564-10.396-1.614-29.607-.034-.576h69.249l.158 1.106zM1068.969 609.348h-58.334l-3.307-21.491-.745-4.82h56.042zM1077.423 644.396h-61.381l-3.725-24.144-.757-4.933h58.853zM1086.803 683.315h-64.768l-.745-4.854-4.233-27.439h61.958l7.224 29.945zM1097.278 726.772h-68.549l-5.554-36.086h65.4zM1109.051 775.602h-72.794l-4.627-30.07-1.626-10.509h69.26l2.258 9.346 3.093 12.823v.011z"/><path fill="#E1E7F7" d="M669.123 803.363h476.124v13.238H669.123z"/><path fill="#187E9E" d="M775.245 726.772h-34.427l-21.48-17.642 4.492-18.444h7.484zM750.853 735.023h31.424l-3.578 22.869zM834.685 775.602h-34.427l-12.371-10.159 3.646-25.295zM797.098 609.348h-34.439l-15.836-13.015 3.24-13.296h15.012zM769.929 615.319h31.119l-3.555 22.643zM839.764 644.396h-34.426l3.645-25.284zM865.511 665.549l-1.016 17.766h-11.784l-39.314-32.293h34.438zM861.685 690.686h2.381l-.101 1.862zM887.149 683.315H873.83l.474-10.554zM940.054 726.772h-34.438l-32.531-26.729.418-9.357h22.62zM940.776 735.023l.903 21.368-26.017-21.368zM999.494 775.602h-34.427l-12.653-10.396-1.614-29.607zM998.501 583.037l3.725 26.311h-3.172l-32.034-26.311zM1033.492 609.348h-22.857l-3.307-21.491zM1076.159 644.396h-34.438l-29.404-24.144-.757-4.933h29.201zM1086.239 680.967l-36.459-29.945h29.235zM755.029 644.396h-12.518l-6.174-5.068 2.099-8.568zM791.759 674.567l-1.366 8.748h-.497l-39.314-32.293H763.1zM802.414 683.315h-2.686l.282-1.975zM855.319 726.772h-12.53l-43.919-36.086h12.518zM852.835 735.023h8.692l-.395 6.818zM914.759 775.602h-12.518l-31.391-25.781.452-9.922zM846.334 583.037l22.823 18.76-.429 7.551h-2.889l-32.034-26.311zM878.356 609.348h-1.219l.045-.971zM921.023 644.396h-12.518l-31.763-26.086.136-2.991h8.748zM937.526 657.952l.451 10.655-21.412-17.585h12.529zM968.397 683.315h-12.518l-8.319-6.84-.587-10.768zM1018.852 726.772h-10.068l-43.931-36.086h12.517l41.155 33.806zM1020.015 735.023l.158 1.106-1.344-1.106zM1080.741 775.602h-12.517l-36.594-30.07-1.626-10.509h1.343zM935.471 609.348h-10.847l-32.034-26.311h12.518l30.307 24.889zM935.731 615.319l.135 3.262-3.973-3.262zM979.809 644.396h-12.518l-22.496-18.478-.576-10.599h.192zM1012.441 681.487l-37.08-30.465h12.518l22.914 18.827zM1027.194 683.315h-5.159l-.745-4.854zM1080.098 726.772h-12.529l-43.931-36.086h12.529zM1104.615 757.192l-27-22.169h12.529l11.378 9.346z"/><path fill="#FFD4D1" d="M870.354 374.053s-3.999-18.078-8.872-17.548c-3.978.432.426 10.031-1.01 10.308-4.905.946-3.417-6.932-9.141-12.938-4.299-4.51-9.775-4.245-10.501.117-.726 4.362 4.55 20.612 14.737 27.443 4.401 2.95 14.787-7.382 14.787-7.382z"/><path fill="#FFC3C2" d="M1004.563 366.077h36.034l-6.404-37.307h-23.456z"/><path fill="#152847" d="M1047.86 870.456c-.225 12.443-24.003 36.757 17.364 36.757 32.775 0 14.115-26.637 13.833-38.994-.046-2.02.052-7.235.15-9.635h-31.324c.334 2.216.018 9.648-.023 11.872zM983.4 863.709c-3.33 1.805-14.468 3.727-27.007-.213-.664-.209-1.332-.059-1.791.617-1.854 2.733-7.057 9.743-13.523 12.803-11.686 5.532-31.832-3.127-34.554 23.557-.126 1.234.445 2.402 1.329 2.637 3.223.855 11.931 2.497 29.099 1.567 9.648-.523 27.426-3.896 33.126-5.014.977-.192 1.857.805 1.913 2.163.05 1.217.769 2.168 1.652 2.185l14.97.292c.913.018 1.678-.951 1.73-2.21.272-6.555.546-25.946-4.907-37.441-.443-.935-1.279-1.354-2.037-.943z"/><path fill="#22355B" d="M1085.358 559.459s5.089 277.946-3.627 310.357c0 0-34.662 2.6-37.751-.42-4.151-4.058-16.236-210.518-26.852-243.403l-13.731 92.461s-11.114 149.809-14.803 150.943c-3.894 1.196-40.92.087-40.92.087l.811-156.822 9.595-153.167 127.278-.036z"/><path fill="#E6E6E6" d="M985.623 559.513c3.734 14.526 45.609 8.086 71.492 25.902 18.434 12.688 17.297 44.628 29.399 64.334-.447-42.413-1.156-90.289-1.156-90.289l-36.621-19.619c-32.89 11.667-67.648 2.031-63.114 19.672z"/><path fill="#296D9E" d="M1086.865 461.337v.012c-.32 2.901-.602 5.797-.836 8.673a215.117 215.117 0 0 0-.291 3.953c-.004.041-.004.086-.008.127-.102 1.635-.205 3.237-.295 4.81-2.896 48.614-.86 67.849-.86 67.849-12 4.351-22.558 7.1-33.374 8.739-9.98 1.516-20.186 2.081-31.956 2.089-12.701.008-20.657-.229-28.101-1.364-.545-.086-1.094-.172-1.639-.266-.041-.008-.082-.012-.123-.021-8.452-1.475-16.666-4.199-30.997-9.177 1.45-25.553.401-48.024-.963-70.291v-.021c-.082-1.422-.176-2.843-.262-4.269-.008-.107-.012-.217-.02-.324v-.008c-.037-.598-.074-1.196-.115-1.795-.037-.606-.078-1.217-.115-1.823-.008-.107-.012-.217-.02-.324-.209-3.274-.414-6.547-.615-9.829 0-.012 0-.012-.008-.02l-.209-3.433c-.967-16.269-1.725-32.923-1.45-51.064.68-9.312-3.208-25.487 1.209-31.719.729-1.032 2.802-2.302 5.781-3.663.443-.205.905-.41 1.389-.619 2.622-1.131 5.781-2.298 9.255-3.445l1.631-.524a194.844 194.844 0 0 1 13.303-3.724c.565-.139 1.131-.27 1.696-.402.602-.143 1.205-.279 1.807-.414 4.077-.918 8.055-1.655 11.66-2.126 5.215 3.548 17.199 6.281 17.199 6.281l2.536-1.045c2.348-.213 10.984-3.794 14.753-5.392.733.172 1.61.377 1.618.385 2.716.565 6.268 1.393 10.226 2.401 1.713.438 3.499.91 5.326 1.405 4.929 1.348 10.152 2.901 14.995 4.531 4.007 1.348 7.743 2.753 10.837 4.142.004 0 .008.004.008.004 3.466 1.561 6.113 3.097 7.399 4.523 13.083 14.478 3.603 51.232-.371 87.178z"/><path fill="#E7EEF7" d="M1078.751 433.705c.137.501 3.859 13.473 7.365 35.205.688-8.003 1.747-16.125 2.867-24.108l-10.232-11.097zM955.607 446.608c.403 7.493.875 14.868 1.336 22.233 5.922-23.205 15.653-41.912 16.036-42.639l-17.372 20.406z"/><path fill="#FFD4D1" d="M927.524 466.66c-17.504 9.037-35.877-5.509-42.708-18.513-12.371-23.551-19.843-42.886-29.249-66.714l14.787-7.381c12.542 20.852 39.807 53.848 39.807 53.848 9.587-12.238 37.222-43.968 48.754-53.298l1.218 64.866c-.001.001-9.235 15.125-32.609 27.192z"/><path fill="#296D9E" d="M957.232 370.227s-34.666 33.837-42.833 49.588l25.879 43.259s21.641-12.231 32.708-36.889c7.737-17.24-15.754-55.958-15.754-55.958z"/><path fill="#215B85" d="m1031.248 369.286-3.463 6.687c-.384.743-1.296 1.228-2.305 1.228h-6.645c-.951 0-1.812-.417-2.23-1.096-1.3-2.107-4.018-6.546-4.018-6.818 0-.301 8.71-5.453 9.33-5.74l9.331 5.739z"/><path fill="#215B85" d="m1026.659 376.4 7.024 156.328-11.533 12.296-11.533-12.428 7.621-156.395z"/><path fill="#FFF" d="M1049.398 358.553c-.131.254-.381.594-.729 1.004-2.733 3.241-11.463 10.849-15.691 14.491-1.967-.799-11.164-8.452-11.164-8.452l-11.197 7.506c-7.239-4.81-18.084-12.696-19.94-14.048l-.274-.201c4.294-1.446 14.692-2.47 14.692-2.47s14.45 5.859 16.822 5.793c.049 0 .098-.004.156-.012 2.348-.213 10.984-3.794 14.753-5.392 1.098-.467 1.782-.766 1.782-.766l10.79 2.547z"/><path fill="#152847" d="M1085.358 559.459s-40.693 4.036-63.393 4.036c-26.433 0-63.884-4-63.884-4l.304-12.728s38.928 3.265 63.58 3.189c21.214-.065 62.612-3.189 62.612-3.189l.781 12.692z"/><path fill="#FFAE21" d="M1103.932 554.338c-18.871 12.074-51.281 9.55-51.281 9.55a143.53 143.53 0 0 1-.844-4.638 195.87 195.87 0 0 1-.607-3.748c-3.519-22.943-4.478-51.347-4.15-79.362.008-1.311.029-2.63.053-3.941.094-5.895.242-11.762.434-17.547.037-1.323.082-2.634.127-3.945.193-5.195.414-10.304.66-15.302.066-1.319.127-2.639.193-3.941 1.831-35.07 4.728-63.474 5.477-70.5 4.929 1.348 10.152 2.901 14.995 4.531 4.007 1.348 7.743 2.753 10.837 4.142.004 0 .008.004.008.004l.012.012a12.08 12.08 0 0 0-1.348 1.905c-.205.356-.402.729-.59 1.118a23.695 23.695 0 0 0-1.311 3.458 33.38 33.38 0 0 0-.492 1.831l-.086.365a38.304 38.304 0 0 0-.406 1.983c-.033.176-.066.356-.098.541-.115.672-.217 1.36-.311 2.065-.021.152-.037.303-.057.459-.328 2.585-.52 5.387-.594 8.333 0 .049-.004.102-.004.16-.18 7.034.287 14.892 1.122 22.644.221 2.081.471 4.15.746 6.195a241.22 241.22 0 0 0 1.254 8.391c.037.242.078.483.119.725l.172.992c.115.655.23 1.307.344 1.946l.172.959c.201 1.082.406 2.139.615 3.171.037.176.07.352.107.524.139.701.283 1.385.426 2.057.106.504.213 1.004.323 1.491.033.164.07.324.107.483a325.445 325.445 0 0 0 .512 2.224l.135.57a143.632 143.632 0 0 0 .536 2.147c.217.844.435 1.647.652 2.405.07.242.135.479.201.709.344 1.18.68 2.241 1.008 3.159.082.234.164.455.246.672.037.107.078.209.119.311a18.225 18.225 0 0 0 .672 1.545c.262.529.512.922.742 1.168.045.049.09.102.139.168.029.041.057.086.09.135.041.061.078.127.119.197.09.156.18.336.274.541.074.152.143.32.217.5.008.016.012.037.021.053.045.111.09.225.135.348.045.119.094.242.139.373a41.107 41.107 0 0 1 .852 2.667c.07.225.131.455.197.692.012.041.02.086.037.127.094.336.188.688.283 1.053.045.164.086.324.131.492.18.676.36 1.393.541 2.147.111.447.221.901.332 1.372.061.27.127.545.193.823.139.586.279 1.192.418 1.815l.123.553c.098.443.197.889.295 1.348.143.647.283 1.311.426 1.987.32 1.495.643 3.052.975 4.67.012.057.025.111.033.168.504 2.499 1.02 5.125 1.545 7.846l.086.455c.147.783.299 1.577.451 2.376l.668 3.568c.078.43.16.86.238 1.295.188 1.024.377 2.057.565 3.093.066.369.135.737.201 1.106.094.533.188 1.069.287 1.606.106.578.209 1.155.311 1.733.094.537.188 1.077.287 1.618.151.84.299 1.68.442 2.52l.443 2.516c.098.561.193 1.118.291 1.676.049.283.098.561.143.836.18 1.041.356 2.073.537 3.101l.037.225.283 1.651c.078.471.16.946.242 1.413l.037.225c.09.545.184 1.09.274 1.626.021.107.037.213.053.315.119.705.237 1.405.352 2.098.065.369.127.737.188 1.102.115.692.225 1.377.34 2.052a1313.954 1313.954 0 0 1 .881 5.314c.147.91.295 1.807.443 2.688.491 3.023.95 5.842 1.356 8.382.041.246.078.488.119.725l.242 1.52c.033.213.07.422.102.627.029.197.061.393.094.582.029.197.057.389.09.578.172 1.086.332 2.094.475 3.015.037.229.074.459.106.676.107.66.201 1.27.291 1.827.025.156.045.307.07.451.205 1.319.356 2.278.438 2.815l.012.086.053.328c.004.033.008.057.008.07l.002.014z"/><path fill="#FFF" d="m1083.1 452.66-35.564 1.99c.037-1.32.083-2.631.129-3.942l34.225-1.916a63.957 63.957 0 0 0 1.21 3.868zM1089.839 473.747l-42.788 2.393c.009-1.311.027-2.631.055-3.942l41.89-2.338c.275 1.237.559 2.53.843 3.887zM1078.479 433.719l-30.154 1.687c.064-1.32.128-2.64.193-3.942l29.274-1.641c.229 1.328.458 2.621.687 3.896z"/><path fill="#EAEAEA" d="M1103.932 554.338c-18.871 12.074-51.281 9.55-51.281 9.55a143.53 143.53 0 0 1-.844-4.638c-.07-.393-.143-.799-.209-1.192h.008c5.842.074 15.503-.201 25.315-2.18 11.697-2.36 19.428-13.553 17.519-25.335-2.331-14.372-5.773-34.906-9.005-51.63-.324-1.663-.643-3.29-.959-4.867-.266-1.332-.533-2.63-.791-3.892-1.602-7.702-3.081-13.917-4.261-17.289-.455-1.295-.864-2.171-1.221-2.552-.233-.254-.496-.684-.778-1.27-1.201-2.524-2.774-7.977-4.335-15.023a279.289 279.289 0 0 1-.823-3.888c-4.134-20.304-7.682-50.401-3.278-64.638 4.007 1.348 7.743 2.753 10.837 4.142.004 0 .008.004.008.004l.012.012a12.08 12.08 0 0 0-1.348 1.905c-.205.356-.402.729-.59 1.118a23.695 23.695 0 0 0-1.311 3.458 33.38 33.38 0 0 0-.492 1.831l-.086.365a43.032 43.032 0 0 0-.406 1.983c-.033.176-.066.356-.098.541-.115.672-.217 1.36-.311 2.065-.021.152-.037.303-.057.459-.324 2.585-.516 5.387-.594 8.333 0 .049-.004.102-.004.16-.176 7.034.287 14.892 1.122 22.644.225 2.077.475 4.15.746 6.195.381 2.864.803 5.678 1.254 8.391.098.578.197 1.147.291 1.717a243.528 243.528 0 0 0 1.131 6.076c.037.176.07.352.107.524.139.701.283 1.385.426 2.057.106.504.213 1.004.323 1.491.033.16.07.324.107.483.07.324.143.643.217.954.099.43.197.856.295 1.27l.135.57c.074.299.143.594.217.885.107.43.213.852.319 1.262.217.844.435 1.647.652 2.405.065.242.131.475.201.709.344 1.18.68 2.241 1.008 3.159.082.234.164.455.246.672.041.107.078.209.119.311a18.225 18.225 0 0 0 .672 1.545c.262.529.512.922.742 1.168.045.049.09.102.139.168.029.041.057.086.09.135.041.061.078.127.119.197.09.156.18.336.274.541.07.152.143.32.217.5.008.016.012.037.021.053.045.111.09.225.135.348.045.119.094.242.139.373.139.389.283.815.434 1.282.135.434.274.897.418 1.397.065.221.131.447.197.68.012.041.02.086.037.127.09.34.188.692.283 1.053.045.164.086.324.131.492.176.676.356 1.393.541 2.147.106.443.217.901.332 1.372.061.27.127.545.193.823.135.586.274 1.192.414 1.815.041.184.086.369.127.553.098.443.197.889.295 1.348.455 2.077.926 4.306 1.401 6.658.012.057.025.111.033.168a689.316 689.316 0 0 1 1.545 7.846l.086.455c.147.783.299 1.577.451 2.376.225 1.176.447 2.368.668 3.568.078.43.16.86.238 1.295.188 1.024.377 2.057.565 3.093.066.369.135.737.201 1.106.094.533.192 1.069.287 1.606.106.578.209 1.155.311 1.733.098.541.192 1.077.287 1.618.151.84.299 1.68.442 2.52.152.84.299 1.68.443 2.516.098.561.193 1.118.291 1.676.049.283.098.561.143.836.18 1.041.36 2.073.537 3.101l.037.225.283 1.651c.078.471.16.946.242 1.413l.037.225c.094.545.184 1.086.274 1.626.021.107.037.213.053.315.119.705.237 1.405.352 2.098a546.558 546.558 0 0 1 .528 3.154 1313.954 1313.954 0 0 1 .881 5.314c.152.91.299 1.807.443 2.688.491 3.023.95 5.842 1.356 8.382.041.246.078.488.119.725l.242 1.52c.033.209.07.422.102.627.029.197.061.393.094.582.029.197.057.389.09.578.172 1.086.332 2.094.475 3.015.037.229.074.459.106.676.107.66.201 1.27.291 1.827.025.156.045.307.07.451.205 1.319.356 2.278.438 2.815l.012.086.053.328c.004.033.008.053.008.07l.002.014z"/><path fill="#FFAE21" d="M989.505 555.96c-.012.065-.021.131-.033.197-.008.045-.012.094-.02.139-.004.049-.016.102-.025.156-.045.303-.102.606-.156.897-.258 1.569-.541 3.11-.844 4.642 0 0-32.411 2.52-51.277-9.554 0 0 .258-1.643.696-4.494.045-.238.082-.496.119-.75.021-.102.037-.201.057-.303.033-.238.07-.475.107-.725.057-.34.111-.688.168-1.045.045-.258.082-.533.127-.807.102-.651.209-1.34.328-2.052.34-2.155.737-4.605 1.168-7.26.082-.487.164-.983.237-1.487.053-.303.102-.606.147-.91.275-1.696.566-3.462.869-5.289.082-.483.168-.971.238-1.467.094-.512.176-1.036.266-1.557.082-.504.168-1.008.25-1.516 0-.008 0-.025.008-.033.176-1.028.348-2.065.524-3.118.291-1.77.594-3.569.905-5.392.164-.926.319-1.872.488-2.806.082-.549.18-1.098.283-1.659.082-.512.176-1.028.266-1.54.43-2.54.881-5.088 1.34-7.637.172-1.016.356-2.036.541-3.052.266-1.516.541-3.007.815-4.494.266-1.438.533-2.86.787-4.273.139-.742.275-1.483.422-2.208.102-.533.192-1.053.295-1.577.164-.852.32-1.696.488-2.52.127-.68.262-1.356.393-2.028 0-.029.008-.045.016-.074.102-.504.201-1 .295-1.491.098-.496.193-.975.291-1.459.193-.955.381-1.893.574-2.81.045-.229.094-.459.143-.684.143-.68.283-1.348.422-1.999a.2.2 0 0 1 .016-.07v-.004c.176-.86.36-1.696.541-2.511.029-.143.061-.291.094-.434.033-.131.061-.258.09-.389.016-.082.037-.168.053-.25.025-.102.045-.201.065-.299v-.004a87.93 87.93 0 0 0 .414-1.815c.119-.512.238-1.008.356-1.483.119-.488.229-.955.34-1.401a51.19 51.19 0 0 1 .504-1.946c.111-.414.213-.807.324-1.184.053-.193.098-.373.156-.557.053-.176.098-.356.156-.533.033-.127.07-.254.106-.377v-.008c.016-.041.033-.082.045-.123a.262.262 0 0 1 .025-.078c.016-.053.029-.111.041-.164.074-.229.139-.442.213-.643.008-.02.008-.029.016-.045.082-.238.156-.467.229-.68.266-.733.504-1.327.733-1.77.037-.074.074-.135.111-.193.07-.127.139-.238.205-.332.049-.066.098-.123.143-.172.066-.061.127-.148.193-.238a2.99 2.99 0 0 0 .213-.311c.193-.311.393-.717.602-1.192.057-.119.119-.258.176-.393.192-.459.393-.979.594-1.557v-.004c.098-.275.197-.557.295-.856.102-.299.201-.606.299-.93 0 0 .004-.004.004-.008a52.235 52.235 0 0 0 .336-1.118c.094-.307.184-.623.279-.95v-.004c1.127-3.97 2.319-9.181 3.409-15.068v-.004c.229-1.274.459-2.565.688-3.892v-.004c.164-1.008.332-2.036.496-3.073.119-.725.229-1.459.34-2.192.18-1.274.365-2.556.541-3.847.106-.819.209-1.643.311-2.466.008-.021.008-.037.008-.049.102-.815.193-1.622.283-2.438.066-.594.139-1.192.205-1.786l.135-1.36c.311-3.142.561-6.289.725-9.386.037-.631.066-1.266.09-1.897.045-.971.074-1.926.102-2.88.008-.475.016-.955.029-1.43.176-11.779-1.11-22.021-4.957-26.937.443-.205.905-.41 1.389-.619 2.622-1.131 5.781-2.298 9.255-3.445l1.631-.524a194.844 194.844 0 0 1 13.303-3.724c.864 8.194 3.622 35.836 5.387 69.693v.004c.066 1.303.131 2.618.193 3.941v.004c.25 4.994.467 10.099.66 15.298v.004c.049 1.311.094 2.618.131 3.937.193 5.785.34 11.652.43 17.547v.004c.025 1.311.045 2.63.053 3.941.341 28.977-.7 58.377-4.522 81.713z"/><path fill="#FFF" d="m957.978 450.764 35.564 1.99c-.037-1.32-.083-2.631-.128-3.942l-34.225-1.916a63.902 63.902 0 0 1-1.211 3.868zM951.239 471.851l42.788 2.393a287.853 287.853 0 0 0-.055-3.942l-41.89-2.338c-.274 1.237-.559 2.53-.843 3.887zM962.599 431.822l30.154 1.687c-.064-1.32-.128-2.64-.193-3.942l-29.274-1.641a546.16 546.16 0 0 1-.687 3.896z"/><path fill="#EAEAEA" d="M989.48 556.157a1.177 1.177 0 0 1-.029.139c-.004.049-.016.102-.025.156-.045.303-.102.606-.156.897-.258 1.569-.541 3.11-.844 4.642 0 0-32.411 2.52-51.277-9.554 0 0 .258-1.643.696-4.494.045-.238.082-.496.119-.75.021-.102.037-.201.057-.303.033-.238.07-.475.107-.725.057-.34.111-.688.168-1.045.045-.258.082-.533.127-.807.102-.651.209-1.34.328-2.052.34-2.155.737-4.605 1.168-7.26.082-.487.164-.983.237-1.487.053-.303.102-.606.147-.91.275-1.696.566-3.462.869-5.289.082-.483.168-.971.238-1.467.094-.512.176-1.036.266-1.557.082-.504.168-1.008.25-1.516 0-.008 0-.025.008-.033.176-1.028.348-2.065.524-3.118.291-1.77.594-3.569.905-5.392.164-.926.319-1.872.488-2.806.082-.549.18-1.098.283-1.659.082-.512.176-1.028.266-1.54.43-2.54.881-5.088 1.34-7.637.172-1.016.356-2.036.541-3.052.266-1.516.541-3.007.815-4.494.266-1.438.533-2.86.787-4.273.139-.742.275-1.483.422-2.208.102-.533.192-1.053.295-1.577.164-.852.32-1.696.488-2.52.127-.68.262-1.356.393-2.028 0-.029.008-.045.016-.074.102-.504.201-1 .295-1.491.098-.496.193-.975.291-1.459.193-.955.381-1.893.574-2.81.188-.918.377-1.811.565-2.684a.2.2 0 0 1 .016-.07v-.004c.176-.86.36-1.696.541-2.511.029-.143.061-.291.094-.434.033-.131.061-.258.09-.389.016-.082.037-.168.053-.25.025-.102.045-.201.065-.299v-.004a87.93 87.93 0 0 0 .414-1.815c.119-.512.238-1.008.356-1.483.119-.488.229-.955.34-1.401.176-.68.34-1.332.504-1.946.111-.414.213-.807.324-1.184.053-.193.098-.373.156-.557.053-.176.098-.356.156-.533.033-.127.07-.254.106-.377l.045-.131a.262.262 0 0 1 .025-.078l.049-.148c.066-.229.139-.451.205-.66.008-.02.008-.029.016-.045.082-.238.156-.467.229-.68.266-.733.504-1.327.733-1.77.037-.074.074-.135.111-.193.07-.127.139-.238.205-.332.049-.066.098-.123.143-.172.066-.061.127-.148.193-.238a2.99 2.99 0 0 0 .213-.311c.193-.311.393-.717.602-1.192.057-.119.119-.258.176-.393.192-.459.393-.979.594-1.557v-.004c.098-.275.197-.557.295-.856.102-.299.201-.606.299-.93 0 0 .004-.004.004-.008.201-.643.406-1.332.615-2.069v-.004c1.127-3.97 2.319-9.181 3.409-15.068v-.004c.229-1.274.459-2.565.688-3.892v-.004c.164-1.008.332-2.036.496-3.073.119-.725.229-1.459.34-2.192.18-1.274.365-2.556.541-3.847.106-.819.209-1.643.311-2.466.008-.021.008-.037.008-.049.102-.815.193-1.622.283-2.438.066-.594.139-1.192.205-1.786l.135-1.36c.311-3.142.561-6.289.725-9.386.037-.631.066-1.266.09-1.897.045-.971.074-1.926.102-2.88.008-.475.016-.955.029-1.43.176-11.779-1.11-22.021-4.957-26.937.443-.205.905-.41 1.389-.619 2.622-1.131 5.781-2.298 9.255-3.445 4.175 14.442.656 44.058-3.433 64.117-.266 1.348-.549 2.638-.815 3.888v.004c-1.569 7.051-3.134 12.492-4.339 15.011 0 .004-.004.004-.004.008-.283.594-.537 1.012-.774 1.266-.356.385-.77 1.258-1.217 2.552v.004c-1.184 3.372-2.671 9.587-4.265 17.285v.004a465.486 465.486 0 0 0-.787 3.892 424.055 424.055 0 0 0-.901 4.531v.016c-3.245 16.789-6.719 37.491-9.067 51.949-1.905 11.779 5.822 22.976 17.518 25.331 8.858 1.786 17.605 2.18 23.508 2.192.643 0 1.237 0 1.807-.012h.011z"/><path fill="#FFD44A" d="M1035.413 549.359v13.466c-7.242.405-14.299.668-20.15.668-3.791 0-7.802-.088-11.888-.23v-13.905c4.163.121 8.185.603 11.888.592 5.665-.021 12.776-.252 20.15-.591z"/><path fill="#152847" d="M1032.677 551.782v8.849c-6.006.266-11.857.439-16.708.439-3.144 0-6.469-.058-9.858-.151v-8.863c3.452.079 6.787.122 9.858.115 4.697-.014 10.594-.165 16.708-.389z"/><path fill="#FFD4D1" d="M1100.547 560.971c21.584-16.974 56.211-61.757 57.591-79.352 2.327-29.659-43.369-93.095-73.166-104.754l2.022 64.009c3.756 7.832 25.572 29.12 34.604 45.309-6.482 15.772-25.292 47.18-30.409 58.423l9.358 16.365z"/><path fill="#296D9E" d="M1084.826 372.237s31.356 13.373 55.857 57.767l-38.852 33.155s-18.625-11.704-24.066-38.179c-3.884-18.892 7.061-52.743 7.061-52.743z"/><path fill="#FFD4D1" d="M1093.154 544.21s-25.575-1.582-27.114 8.074c-1.384 8.685 12.274 3.597 18.208 7.862 7.049 5.067 15.389 6.465 17.745-3.598 1.485-6.35-2.595-10.689-8.839-12.338z"/><path fill="#472B0F" d="M1112.042 306.854v.079c0-.04 0-.079.039-.118l-.039.039z"/><path fill="#FFD1D1" d="M1047.277 323.423c.919-.159 3.679-.344 5.331-.981 13.151-4.719 11.891-16.375 8.809-18.684-4.084-3.082-10.109.406-10.109.406l-4.031 19.259z"/><path fill="#F5BABA" d="M1049.851 319.532a9.958 9.958 0 0 0 1.704-.447 4.254 4.254 0 0 0 1.111-.345c8.484-3.044 7.772-10.404 5.783-11.893-2.634-1.988-6.521.262-6.521.262l-2.077 12.423z"/><path fill="#FFD1D1" d="M994.608 323.423c-.919-.159-3.679-.344-5.331-.981-13.151-4.719-11.891-16.375-8.809-18.684 4.084-3.082 10.109.406 10.109.406l4.031 19.259z"/><path fill="#F5BABA" d="M992.034 319.532a9.958 9.958 0 0 1-1.704-.447 4.254 4.254 0 0 1-1.111-.345c-8.483-3.044-7.772-10.404-5.783-11.893 2.634-1.988 6.521.262 6.521.262l2.077 12.423z"/><path fill="#FFD1D1" d="M986.509 303.428c0 20.888 16.168 41.386 34.065 41.386 18.302 0 34.065-20.498 34.065-41.386s-15.252-37.821-34.065-37.821c-18.814.001-34.065 16.934-34.065 37.821z"/><path fill="#0B2D50" d="M982.817 288.94v.083c0-.043 0-.083.041-.125l-.041.042z"/><path fill="#22355B" d="M1053.538 312.955s3.359-20.949-6.884-30.446c0 0-7.078 7.831-13.828 8.93 0 0 1.875-4.762.234-6.915 0 0-4.969 7.281-11.438 8.838 0 0 .844-2.839.844-3.755 0 0-5.344 3.572-14.485 3.206 3.055-2.29 4.781-5.042 5.344-8.197-2.588 2.589-6.694 6.605-10.702 6.197.349-.918-4.618-8.211-5.822-6.381-3.656 5.564-3.516 15.593-3.516 15.593.001-.414-3.235-1.786-2.813-3.366 0 0-2.064 13.823-.971 16.296 0 0-16.34-15.818-7.258-40.121 5.717-15.297 27.511-20.625 30.659-16.977 0 0-.609-2.106-2.578-2.656 0 0 10.547-1.603 15.75 2.198 0 0 .047-1.861-1.078-2.534 0 0 21.208 3.681 25.36 12.837.445.981 1.922-3.206 1.219-4.351 0 0 3.094 4.671 2.063 6.32 0 0 3.865.266 5.224 1.273 0 0-3.865 1.383-3.49 2.803.375 1.419 3.384 1.927 6.682 10.702 1.86 4.949 1.334 11.783 1.334 11.783l-1.875-1.465c.001 0 1.498 14.224-7.975 20.188z"/><ellipse cx="1006.585" cy="307.251" fill="#FFE0E0" rx="3.95" ry="4.739"/><ellipse cx="1006.585" cy="307.251" fill="#2D3C59" rx="3.103" ry="3.724"/><ellipse cx="1006.585" cy="307.251" fill="#191B36" rx="1.947" ry="2.336"/><circle cx="1005.344" cy="305.934" r=".865" fill="#FFF"/><circle cx="1007.027" cy="304.915" r=".386" fill="#FFF"/><ellipse cx="1033.545" cy="307.443" fill="#FFE0E0" rx="3.95" ry="4.739"/><ellipse cx="1033.545" cy="307.443" fill="#2D3C59" rx="3.103" ry="3.724"/><ellipse cx="1033.545" cy="307.443" fill="#191B36" rx="1.947" ry="2.336"/><circle cx="1034.786" cy="306.126" r=".865" fill="#FFF"/><path fill="#2D3C59" d="M1009.018 298.237c-1.456-1.1-3.489-.947-4.845.229-.234.203-.208.602 0 .809.232.232.575.203.809 0a2.732 2.732 0 0 1 1.646-.65c.666-.022 1.268.189 1.812.6.247.186.64.039.783-.205.172-.293.042-.596-.205-.783zM1035.919 299.116c-1.369-1.207-3.408-1.208-4.849-.138-.248.184-.252.584-.061.807.214.249.558.246.807.061a2.735 2.735 0 0 1 1.691-.524c.666.028 1.25.284 1.762.735.232.205.635.087.796-.146.193-.278.087-.59-.146-.795z"/><path fill="#F0A8A8" d="M1021.493 318.689c-.592-.376-1.27-.396-1.924-.588-.607-.178-.893-.564-.747-1.2.158-.69.497-1.349.766-2l.933-2.261c.106-.256-.114-.564-.358-.631-.295-.081-.525.101-.631.358l-1.032 2.499c-.305.738-.708 1.499-.747 2.312-.036.749.378 1.406 1.052 1.724.69.326 1.523.262 2.17.672.559.356 1.074-.531.518-.885z"/><ellipse cx="1040.151" cy="316.475" fill="#FFB3B3" rx="6.244" ry="4.191"/><ellipse cx="1000.776" cy="316.475" fill="#FFB3B3" rx="6.244" ry="4.191"/><circle cx="1033.188" cy="305.067" r=".386" fill="#FFF"/><path fill="#FFF" d="M1012.562 324.5c0 1.464.74 2.791 1.931 3.752.103.082.216.165.328.238 1.162.824 2.681 1.318 4.339 1.318 1.574 0 3.008-.439 4.142-1.18 1.5-.961 2.465-2.452 2.465-4.127v-.046c0-.32-.459-.961-.853-1.007-1.809-.22-3.533 1.153-5.539 1.18-2.156.018-3.261-1.272-5.754-1.126-.441.028-1.059.65-1.059.998z"/><path fill="#FFF" d="M1014.82 328.489c1.162.824 2.681 1.318 4.339 1.318 1.574 0 3.008-.439 4.142-1.18-.806-.787-2.202-1.693-4.433-1.693-1.892 0-3.195.75-4.048 1.555z"/><path fill="#FFAE21" d="M1064.714 262.517a14.698 14.698 0 0 1-.831 4.091h-83.455c-.011-.208-.011-.427-.011-.646 0-.799.033-1.586.12-2.374 0-.186.022-.361.044-.547.011-.131.033-.263.055-.394.131-1.105.339-2.221.613-3.304 1.86-7.625 6.815-14.932 13.532-20.565 1.007-.842 7.165-4.977 7.811-5.338 6.246-3.413 13.324-5.47 20.554-5.47 4.332 0 8.576.733 12.624 2.068a43.883 43.883 0 0 1 6.936 2.921c.066.033.142.077.208.109a45.311 45.311 0 0 1 4.781 2.91c.602.405 1.181.831 1.761 1.269a45.671 45.671 0 0 1 8.543 8.434c.295.383.591.777.864 1.159.383.514.744 1.05 1.094 1.597.142.197.273.416.405.634.153.23.295.459.427.689a33.254 33.254 0 0 1 1.543 2.844c.055.109.46.974.602 1.291.153.339.295.678.427 1.017.076.197.153.383.219.58.055.153.109.295.164.438a15.538 15.538 0 0 1 .97 6.587z"/><path fill="#F9ECCD" d="M1064.714 262.517a14.698 14.698 0 0 1-.831 4.091h-83.455c-.011-.208-.011-.427-.011-.646 0-.799.033-1.586.12-2.374 63.086-1.214 79.44-4.244 83.203-7.657.131.339.241.667.339.995.559 1.828.766 3.732.635 5.591z"/><path fill="#FFAE21" d="M1068.935 273.219c0 .569-.054 1.116-.153 1.652-.777 4.376-4.605 7.701-9.2 7.701h-74.003a9.286 9.286 0 0 1-6.607-2.746 9.229 9.229 0 0 1-2.592-4.955 9.047 9.047 0 0 1 0-3.304 9.311 9.311 0 0 1 3.774-5.962 9.272 9.272 0 0 1 5.426-1.739h74.003c1.717 0 3.314.459 4.704 1.269.186.109.383.23.558.35.492.339.941.711 1.356 1.127a9.29 9.29 0 0 1 2.582 4.955c.097.536.152 1.083.152 1.652z"/><path fill="#EB9807" d="M1068.935 273.218c0 .563-.05 1.117-.149 1.653h-92.412c-.099-.536-.149-1.09-.149-1.653s.05-1.113.149-1.649h92.412c.099.536.149 1.085.149 1.649z"/><ellipse cx="1022.046" cy="262.354" fill="#EB9807" rx="9.637" ry="9.966"/><ellipse cx="1022.046" cy="262.375" fill="#F2F2F2" rx="6.611" ry="6.665"/><path fill="#EB9807" d="m1010.27 252.464-15.49-13.685a49.14 49.14 0 0 1 3.14-2.418 45.546 45.546 0 0 1 2.746-1.783l9.604 17.886zM1049.454 237.248l-17.218 15.216 10.469-19.505c.066.033.142.077.208.109a45.311 45.311 0 0 1 4.781 2.91c.601.406 1.18.832 1.76 1.27z"/><path fill="#FFAE21" d="m730.605 46.123 22.234 43.418c1.404 2.741 5.207 3.034 7.014.539l28.609-39.509c2.469-3.41 7.859-1.366 7.447 2.823l-4.767 48.547c-.301 3.065 2.74 5.367 5.608 4.245l45.426-17.769c3.92-1.534 7.35 3.099 4.739 6.401l-30.256 38.263c-1.91 2.415-.596 5.997 2.423 6.604l47.821 9.612c4.127.83 4.507 6.581.526 7.947l-46.138 15.83c-2.913.999-3.744 4.723-1.532 6.866l35.033 33.942c3.023 2.929.234 7.974-3.854 6.97l-47.372-11.628c-2.991-.734-5.703 1.949-5 4.947l11.123 47.495c.96 4.099-4.114 6.835-7.01 3.78l-33.565-35.395c-2.119-2.235-5.851-1.444-6.881 1.459l-16.32 45.969c-1.408 3.967-7.155 3.525-7.941-.61l-9.102-47.924c-.575-3.026-4.142-4.378-6.577-2.493l-38.58 29.848c-3.33 2.576-7.925-.903-6.35-4.807l18.251-45.237c1.152-2.856-1.117-5.922-4.185-5.654l-48.592 4.251c-4.193.367-6.179-5.045-2.744-7.477l39.809-28.188c2.514-1.78 2.262-5.586-.464-7.019l-43.177-22.696c-3.726-1.959-2.471-7.585 1.734-7.774l48.729-2.19c3.077-.138 4.923-3.477 3.404-6.156l-24.052-42.437c-2.076-3.662 2.022-7.717 5.661-5.602l42.177 24.504c2.663 1.547 6.02-.263 6.192-3.338l2.708-48.705c.234-4.204 5.873-5.399 7.791-1.652z"/><path fill="#FFBD4A" d="m707.43 76.607 28.047 29.336c1.612 1.686 4.436 1.076 5.208-1.126l13.423-38.303c1.054-3.009 5.409-2.692 6.017.438l7.735 39.843c.445 2.29 3.151 3.303 4.99 1.868l31.999-24.965c2.514-1.961 6.006.66 4.825 3.622l-15.032 37.7c-.864 2.167.865 4.483 3.188 4.27l40.416-3.701c3.175-.291 4.696 3.802 2.101 5.656l-33.027 23.588c-1.898 1.356-1.696 4.238.373 5.315l36.001 18.738c2.828 1.472 1.895 5.737-1.29 5.894l-40.536 1.987c-2.33.114-3.718 2.649-2.559 4.674l20.156 35.228c1.584 2.768-1.508 5.851-4.271 4.261l-35.175-20.245c-2.022-1.164-4.56.218-4.68 2.548l-2.088 40.533c-.164 3.184-4.432 4.107-5.897 1.275l-18.646-36.05c-1.072-2.072-3.954-2.282-5.314-.387l-23.67 32.97c-1.86 2.59-5.949 1.059-5.65-2.116l3.803-40.408c.219-2.323-2.092-4.057-4.262-3.199l-37.736 14.938c-2.965 1.174-5.577-2.325-3.609-4.834l25.044-31.938c1.439-1.836.433-4.545-1.856-4.995l-39.821-7.836c-3.129-.616-3.435-4.971-.423-6.018l38.335-13.327c2.203-.766 2.821-3.589 1.139-5.205l-29.264-28.122c-2.299-2.21-.202-6.039 2.898-5.292l39.454 9.515c2.268.547 4.314-1.494 3.772-3.763l-9.415-39.48c-.741-3.104 3.094-5.192 5.297-2.887z"/><ellipse cx="754.031" cy="163.478" fill="#FFE082" rx="83.084" ry="83.089" transform="translate(-.938 4.388)"/><ellipse cx="754.031" cy="163.478" fill="#FFD554" rx="67.106" ry="67.11" transform="translate(-.979 4.582)"/></svg>